<svg xmlns="http://www.w3.org/2000/svg" viewBox="0 0 1280 580">
<rect fill="#FBF8F3" width="1280" height="580"/>
<line x1="120" y1="80" x2="1160" y2="80" stroke="#8B7355" stroke-width="0.5" opacity="0.5"/>
<path d="M120.6 56.61L131.84 56.61L131.84 55.9L120.6 55.9ZM149.5 50.23L151.04 50.37L148.38 58.6L145.63 50.35L147.22 50.23L147.22 49.81L143.11 49.81L143.11 50.23L144.32 50.33L147.73 60.1L148.39 60.1L151.65 50.35L152.93 50.21L152.93 49.81L149.5 49.81ZM161.23 60.22C163.72 60.22 165.81 58.24 165.81 54.9C165.81 51.53 163.72 49.57 161.23 49.57C158.75 49.57 156.65 51.59 156.65 54.9C156.65 58.28 158.75 60.22 161.23 60.22ZM161.23 59.75C159.1 59.75 157.98 57.55 157.98 54.9C157.98 52.27 159.1 50.07 161.23 50.07C163.37 50.07 164.48 52.27 164.48 54.9C164.48 57.55 163.37 59.75 161.23 59.75ZM170.53 50.23L171.97 50.34C171.98 51.71 171.98 53.13 171.98 54.53L171.98 55.39C171.98 56.71 171.98 58.08 171.97 59.45L170.53 59.58L170.53 60L177.93 60L178.03 57.27L177.41 57.27L176.99 59.52L173.24 59.52C173.23 58.12 173.23 56.72 173.23 55.52L173.23 54.71C173.23 53.14 173.23 51.73 173.24 50.34L174.74 50.23L174.74 49.81L170.53 49.81ZM184.32 60.21C184.81 60.21 185.18 59.8 185.18 59.36C185.18 58.87 184.81 58.49 184.32 58.49C183.81 58.49 183.46 58.87 183.46 59.36C183.46 59.8 183.81 60.21 184.32 60.21ZM201.09 60.21C202.77 60.21 204.32 58.68 204.32 54.88C204.32 51.12 202.77 49.6 201.09 49.6C199.41 49.6 197.85 51.12 197.85 54.88C197.85 58.68 199.41 60.21 201.09 60.21ZM201.09 59.78C200.04 59.78 199.02 58.6 199.02 54.88C199.02 51.21 200.04 50.05 201.09 50.05C202.12 50.05 203.16 51.21 203.16 54.88C203.16 58.6 202.12 59.78 201.09 59.78ZM213.24 60.25L214.29 60.25L214.29 57.31L215.97 57.31L215.97 56.5L214.29 56.5L214.29 49.65L213.51 49.65L208.97 56.65L208.97 57.31L213.24 57.31ZM209.57 56.5L211.53 53.46L213.24 50.79L213.24 56.5ZM229.13 55.8C229.62 55.8 230 55.41 230 54.95C230 54.47 229.62 54.08 229.13 54.08C228.63 54.08 228.28 54.47 228.28 54.95C228.28 55.41 228.63 55.8 229.13 55.8ZM242.91 60L249.16 60L249.16 59.02L243.68 59.02C244.53 58.08 245.36 57.17 245.76 56.75C247.89 54.57 248.74 53.55 248.74 52.26C248.74 50.61 247.78 49.6 245.9 49.6C244.47 49.6 243.13 50.33 242.91 51.75C242.99 52.03 243.21 52.19 243.48 52.19C243.8 52.19 244.03 52.01 244.17 51.46L244.5 50.24C244.87 50.09 245.22 50.03 245.57 50.03C246.81 50.03 247.55 50.83 247.55 52.23C247.55 53.46 246.94 54.44 245.45 56.23C244.77 57.05 243.83 58.15 242.91 59.24ZM257.21 60.21C258.89 60.21 260.45 58.68 260.45 54.88C260.45 51.12 258.89 49.6 257.21 49.6C255.53 49.6 253.98 51.12 253.98 54.88C253.98 58.68 255.53 60.21 257.21 60.21ZM257.21 59.78C256.16 59.78 255.14 58.6 255.14 54.88C255.14 51.21 256.16 50.05 257.21 50.05C258.25 50.05 259.29 51.21 259.29 54.88C259.29 58.6 258.25 59.78 257.21 59.78ZM265.52 60L271.77 60L271.77 59.02L266.29 59.02C267.14 58.08 267.97 57.17 268.37 56.75C270.5 54.57 271.35 53.55 271.35 52.26C271.35 50.61 270.39 49.6 268.51 49.6C267.08 49.6 265.74 50.33 265.52 51.75C265.6 52.03 265.82 52.19 266.09 52.19C266.41 52.19 266.64 52.01 266.78 51.46L267.11 50.24C267.48 50.09 267.83 50.03 268.18 50.03C269.42 50.03 270.16 50.83 270.16 52.23C270.16 53.46 269.55 54.44 268.06 56.23C267.38 57.05 266.44 58.15 265.52 59.24ZM279.98 60.21C281.74 60.21 283.06 58.82 283.06 56.91C283.06 55.07 282.06 53.84 280.37 53.84C279.45 53.84 278.66 54.2 277.99 54.92C278.35 52.45 279.98 50.51 282.79 49.91L282.72 49.6C279.03 50.03 276.72 52.87 276.72 56.12C276.72 58.61 277.95 60.21 279.98 60.21ZM277.95 55.37C278.61 54.68 279.26 54.41 279.99 54.41C281.17 54.41 281.9 55.31 281.9 56.99C281.9 58.78 281.06 59.78 279.99 59.78C278.69 59.78 277.92 58.39 277.92 56ZM294.93 49.49L295.06 49.91L300.77 49.91L300.77 51.71L300.75 52.17L297.06 52.17L296.05 51.71L296.05 61.09L296.2 61.09C296.61 61.09 296.96 60.85 296.96 60.74L296.96 52.59L300.73 52.59C300.59 54.41 299.91 56.32 297.48 57.9L297.62 58.1C299.72 57.13 300.75 55.83 301.24 54.51C302.28 55.38 303.55 56.72 303.92 57.77C305 58.46 305.47 56.11 301.34 54.23C301.51 53.67 301.59 53.13 301.64 52.59L305.6 52.59L305.6 59.66C305.6 59.89 305.53 59.99 305.22 59.99C304.83 59.99 303.08 59.86 303.08 59.86L303.08 60.08C303.85 60.17 304.27 60.29 304.53 60.43C304.74 60.57 304.83 60.8 304.88 61.08C306.34 60.95 306.52 60.46 306.52 59.75L306.52 52.78C306.8 52.72 307.03 52.59 307.12 52.5L305.93 51.6L305.46 52.17L301.66 52.17L301.68 51.71L301.68 49.91L307.38 49.91C307.57 49.91 307.71 49.84 307.74 49.68C307.24 49.22 306.44 48.62 306.44 48.62L305.71 49.49ZM315.52 48.14C314.96 50.4 313.94 52.59 312.91 53.98L313.1 54.11C314.01 53.32 314.84 52.26 315.54 51L318.35 51L318.35 54.82L312.43 54.82L312.56 55.23L318.35 55.23L318.35 61.09L318.51 61.09C318.98 61.09 319.29 60.87 319.29 60.78L319.29 55.23L324.86 55.23C325.06 55.23 325.21 55.16 325.24 55C324.74 54.54 323.91 53.91 323.91 53.91L323.17 54.82L319.29 54.82L319.29 51L323.88 51C324.08 51 324.22 50.93 324.26 50.77C323.74 50.31 322.94 49.71 322.94 49.71L322.24 50.58L315.76 50.58C316.03 50.05 316.28 49.47 316.5 48.88C316.81 48.9 316.98 48.77 317.04 48.6ZM337.01 56.61L348.26 56.61L348.26 55.9L337.01 55.9Z" fill="#8B7355"/>
<path d="M953.51 60.17Q953.01 60.17 952.55 60.06Q952.09 59.96 951.58 59.69Q951.47 59.62 951.5 59.43L951.78 57.54Q951.78 57.47 951.86 57.47Q951.93 57.47 951.95 57.54Q952.04 58.6 952.52 59.25Q953 59.9 953.86 59.9Q954.54 59.9 955.02 59.51Q955.5 59.12 955.63 58.33Q955.67 58.12 955.67 57.94Q955.67 57.26 955.28 56.79Q954.89 56.33 954.13 55.8Q953.61 55.42 953.31 55.16Q953.01 54.89 952.8 54.51Q952.59 54.13 952.59 53.66Q952.59 53.48 952.63 53.27Q952.83 52.23 953.68 51.66Q954.52 51.1 955.56 51.1Q956.33 51.1 957.11 51.43Q957.29 51.53 957.28 51.67L957.08 53.31Q957.08 53.35 957.01 53.35Q956.93 53.35 956.93 53.31Q956.82 52.43 956.43 51.88Q956.03 51.33 955.28 51.33Q954.73 51.33 954.36 51.61Q953.99 51.89 953.82 52.31Q953.64 52.73 953.64 53.15Q953.64 53.59 953.84 53.92Q954.05 54.26 954.33 54.51Q954.61 54.75 955.14 55.13Q955.95 55.7 956.37 56.19Q956.79 56.68 956.79 57.4Q956.79 57.65 956.76 57.79Q956.58 58.82 955.73 59.5Q954.87 60.17 953.51 60.17ZM961.23 60Q961.19 60 961.19 59.92Q961.19 59.83 961.23 59.83Q961.66 59.83 961.87 59.76Q962.07 59.69 962.17 59.5Q962.28 59.3 962.35 58.87L963.5 52.38Q963.55 52.02 963.55 51.94Q963.55 51.63 963.36 51.52Q963.17 51.42 962.7 51.42Q962.66 51.42 962.66 51.33Q962.66 51.25 962.7 51.25L963.3 51.26Q963.83 51.29 964.14 51.29Q964.53 51.29 965.06 51.26L965.64 51.25Q965.68 51.25 965.68 51.33Q965.68 51.42 965.64 51.42Q965.22 51.42 965 51.5Q964.78 51.59 964.68 51.79Q964.57 51.99 964.5 52.41L963.36 58.87Q963.3 59.13 963.3 59.34Q963.3 59.64 963.48 59.73Q963.66 59.83 964.17 59.83Q964.2 59.83 964.2 59.92Q964.2 60 964.17 60Q963.8 60 963.58 59.99L962.68 59.97L961.23 60ZM971.62 52.4L970.57 58.47Q970.51 58.84 970.51 58.98Q970.51 59.83 971.34 59.83Q971.36 59.83 971.36 59.92Q971.36 60 971.34 60Q971.03 60 970.85 59.99L970.16 59.97L968.96 60Q968.93 60 968.93 59.92Q968.93 59.83 968.96 59.83Q970.01 59.83 970.23 58.47L971.38 52.01Q971.15 51.68 970.93 51.55Q970.71 51.42 970.45 51.42Q970.41 51.42 970.41 51.33Q970.41 51.25 970.45 51.25L971.46 51.28L972.16 51.25Q972.25 51.25 972.29 51.3Q972.33 51.35 972.39 51.5Q972.48 51.78 972.6 51.98L975.97 58.39L976.96 52.79Q977.02 52.43 977.02 52.29Q977.02 51.42 976.19 51.42Q976.17 51.42 976.17 51.33Q976.17 51.25 976.19 51.25L976.67 51.26Q977.09 51.29 977.38 51.29Q977.61 51.29 978.03 51.26L978.57 51.25Q978.6 51.25 978.6 51.33Q978.6 51.42 978.57 51.42Q977.54 51.42 977.3 52.79L975.98 60.13Q975.98 60.15 975.94 60.18Q975.9 60.21 975.84 60.21Q975.76 60.21 975.72 60.14L971.62 52.4ZM986.11 60.17Q984.9 60.17 984.05 59.72Q983.19 59.27 982.75 58.47Q982.31 57.66 982.31 56.61Q982.31 56.11 982.41 55.62Q982.65 54.32 983.45 53.29Q984.24 52.26 985.42 51.68Q986.6 51.1 987.91 51.1Q988.5 51.1 989.04 51.22Q989.58 51.35 989.89 51.57Q989.96 51.64 989.97 51.69Q989.98 51.74 989.97 51.89L989.82 53.55Q989.8 53.6 989.73 53.6Q989.66 53.6 989.65 53.55Q989.52 52.52 988.93 51.97Q988.33 51.42 987.34 51.42Q985.87 51.42 984.88 52.41Q983.89 53.41 983.6 55.11Q983.5 55.7 983.5 56.29Q983.5 57.38 983.87 58.2Q984.23 59.02 984.91 59.46Q985.59 59.9 986.5 59.9Q987.06 59.9 987.39 59.76Q987.72 59.62 987.91 59.27Q988.09 58.91 988.19 58.24Q988.28 57.7 988.28 57.41Q988.28 57.12 988.16 56.98Q988.05 56.84 987.8 56.79Q987.55 56.74 987.04 56.74Q987.02 56.74 987 56.7Q986.97 56.67 986.97 56.63Q986.97 56.58 987 56.55Q987.02 56.51 987.04 56.51Q988 56.58 988.63 56.58Q989.23 56.58 989.87 56.54Q989.93 56.54 989.93 56.64Q989.93 56.74 989.87 56.74Q989.62 56.72 989.5 56.83Q989.38 56.93 989.31 57.24Q989.23 57.55 989.1 58.38Q989.02 58.92 989 59.22Q988.98 59.52 988.96 59.61Q988.95 59.69 988.92 59.72Q988.89 59.75 988.81 59.78Q987.27 60.17 986.11 60.17ZM993.34 60Q993.29 60 993.29 59.92Q993.29 59.83 993.34 59.83Q993.75 59.83 994.24 59.44Q994.73 59.05 995.19 58.22L999.17 51.11Q999.2 51.07 999.27 51.07Q999.39 51.07 999.42 51.14L1000.75 58.82Q1000.82 59.27 1000.9 59.47Q1000.97 59.66 1001.16 59.75Q1001.35 59.83 1001.74 59.83Q1001.8 59.83 1001.8 59.92Q1001.8 60 1001.74 60Q1001.53 60 1001.09 59.97Q1000.58 59.94 1000.29 59.94Q999.98 59.94 999.53 59.97Q999.08 60 998.89 60Q998.85 60 998.85 59.92Q998.85 59.83 998.89 59.83Q999.38 59.83 999.57 59.71Q999.77 59.58 999.77 59.24Q999.77 59.08 999.73 58.82L999.31 56.35L996.62 56.35L995.63 58.17Q995.22 58.89 995.22 59.29Q995.22 59.59 995.46 59.71Q995.7 59.83 996.17 59.83Q996.23 59.83 996.22 59.92Q996.21 60 996.16 60L995.51 59.97Q994.93 59.94 994.63 59.94Q994.34 59.94 993.95 59.97Q993.55 60 993.34 60ZM996.79 56.04L999.25 56.04L998.66 52.62L996.79 56.04ZM1005.93 60Q1005.9 60 1005.9 59.92Q1005.9 59.83 1005.93 59.83Q1006.36 59.83 1006.58 59.76Q1006.8 59.69 1006.9 59.5Q1007.01 59.3 1007.09 58.87L1008.24 52.38Q1008.3 52.02 1008.3 51.94Q1008.3 51.63 1008.11 51.52Q1007.93 51.42 1007.44 51.42Q1007.4 51.42 1007.4 51.33Q1007.4 51.25 1007.44 51.25L1008.03 51.26Q1008.53 51.29 1008.87 51.29L1009.53 51.26Q1010.17 51.21 1010.58 51.21Q1011.66 51.21 1012.35 51.71Q1013.04 52.2 1013.04 53.15Q1013.04 53.29 1012.99 53.66Q1012.82 54.54 1012.25 55.15Q1011.68 55.76 1010.95 56.05Q1010.21 56.33 1009.53 56.33Q1009.18 56.33 1008.95 56.26Q1008.94 56.26 1008.94 56.22Q1008.94 56.16 1008.97 56.09Q1009 56.02 1009.02 56.04Q1009.21 56.09 1009.44 56.09Q1010.28 56.09 1010.97 55.55Q1011.66 55 1011.84 53.94Q1011.89 53.66 1011.89 53.35Q1011.89 52.47 1011.43 51.96Q1010.97 51.45 1010.3 51.45Q1009.89 51.45 1009.7 51.51Q1009.5 51.57 1009.39 51.77Q1009.28 51.96 1009.19 52.41L1008.06 58.87Q1008 59.23 1008 59.31Q1008 59.62 1008.19 59.73Q1008.38 59.83 1008.87 59.83Q1008.9 59.83 1008.9 59.92Q1008.9 60 1008.87 60Q1008.48 60 1008.25 59.99L1007.37 59.97L1005.93 60ZM1020.38 60.17Q1019.41 60.17 1018.71 59.71Q1018 59.24 1017.63 58.45Q1017.26 57.65 1017.26 56.63Q1017.26 56.14 1017.34 55.62Q1017.56 54.32 1018.27 53.29Q1018.98 52.26 1019.99 51.68Q1021.01 51.1 1022.16 51.1Q1023.15 51.1 1023.87 51.55Q1024.59 52.01 1024.97 52.8Q1025.35 53.59 1025.35 54.6Q1025.35 55.13 1025.25 55.62Q1025.01 56.96 1024.28 58Q1023.54 59.03 1022.51 59.6Q1021.48 60.17 1020.38 60.17ZM1020.98 59.8Q1022.13 59.8 1022.96 58.89Q1023.79 57.98 1024.1 56.36Q1024.24 55.67 1024.24 54.99Q1024.24 53.97 1023.93 53.16Q1023.61 52.36 1023.01 51.89Q1022.41 51.43 1021.6 51.43Q1020.43 51.43 1019.59 52.36Q1018.75 53.29 1018.47 54.88Q1018.35 55.55 1018.35 56.19Q1018.35 57.21 1018.66 58.03Q1018.96 58.85 1019.56 59.33Q1020.15 59.8 1020.98 59.8ZM1029.27 60Q1029.21 60 1029.21 59.92Q1029.21 59.83 1029.27 59.83Q1029.73 59.83 1029.97 59.76Q1030.21 59.68 1030.33 59.48Q1030.44 59.29 1030.53 58.87L1031.68 52.38Q1031.73 52.02 1031.73 51.94Q1031.73 51.63 1031.54 51.52Q1031.34 51.42 1030.82 51.42Q1030.77 51.42 1030.77 51.33Q1030.77 51.25 1030.82 51.25L1031.47 51.26Q1032 51.29 1032.33 51.29L1033.13 51.25Q1033.54 51.21 1033.83 51.21Q1035.97 51.21 1035.97 52.66Q1035.97 52.87 1035.93 53.13Q1035.81 53.85 1035.31 54.44Q1034.81 55.02 1034.1 55.35Q1034.84 57.06 1035.38 58.02Q1035.92 58.98 1036.39 59.41Q1036.87 59.83 1037.37 59.83Q1037.43 59.83 1037.43 59.92Q1037.43 60 1037.37 60L1035.68 60Q1035.34 60 1034.7 58.87Q1034.06 57.73 1033.26 55.65Q1032.88 55.73 1032.43 55.73Q1032.25 55.72 1032.07 55.7L1031.51 58.87Q1031.45 59.13 1031.45 59.34Q1031.45 59.64 1031.63 59.73Q1031.82 59.83 1032.33 59.83Q1032.39 59.83 1032.39 59.92Q1032.39 60 1032.35 60Q1031.93 60 1031.7 59.99L1030.82 59.97L1029.27 60ZM1032.14 55.34Q1032.39 55.38 1032.7 55.38Q1033.66 55.38 1034.16 54.96Q1034.66 54.54 1034.84 53.53Q1034.91 53.2 1034.91 52.82Q1034.91 52.09 1034.55 51.77Q1034.2 51.45 1033.59 51.45Q1033.24 51.45 1033.09 51.5Q1032.94 51.54 1032.84 51.74Q1032.74 51.94 1032.66 52.41L1032.14 55.34ZM1041.46 60Q1041.43 60 1041.43 59.92Q1041.43 59.83 1041.46 59.83Q1041.9 59.83 1042.11 59.76Q1042.32 59.69 1042.42 59.5Q1042.53 59.3 1042.61 58.87L1043.76 52.38Q1043.81 52.02 1043.81 51.95Q1043.81 51.64 1043.63 51.53Q1043.44 51.42 1042.96 51.42Q1042.92 51.42 1042.92 51.33Q1042.92 51.25 1042.96 51.25L1048.36 51.25Q1048.48 51.25 1048.45 51.38L1048.17 53.15Q1048.17 53.2 1048.11 53.2Q1048.07 53.2 1048.04 53.18Q1048 53.15 1048 53.14Q1048.06 52.38 1047.71 51.94Q1047.36 51.49 1046.71 51.49L1045.84 51.49Q1045.41 51.49 1045.21 51.56Q1045 51.63 1044.91 51.81Q1044.81 51.99 1044.74 52.4L1044.23 55.28L1046.08 55.28Q1046.67 55.28 1046.95 55.06Q1047.23 54.83 1047.33 54.27Q1047.33 54.23 1047.41 54.23Q1047.44 54.23 1047.48 54.25Q1047.51 54.27 1047.5 54.3Q1047.45 54.64 1047.37 55L1047.29 55.45L1047.08 56.79Q1047.06 56.85 1046.98 56.84Q1046.89 56.84 1046.91 56.78Q1046.94 56.64 1046.94 56.42Q1046.94 56 1046.71 55.8Q1046.47 55.6 1045.98 55.6L1044.18 55.6L1043.6 58.81Q1043.56 59.06 1043.56 59.23Q1043.56 59.52 1043.74 59.63Q1043.91 59.73 1044.39 59.73L1045.55 59.73Q1046.18 59.73 1046.76 59.22Q1047.34 58.71 1047.71 57.87Q1047.72 57.82 1047.8 57.84Q1047.89 57.86 1047.86 57.9Q1047.61 58.71 1047.41 59.79Q1047.38 59.92 1047.34 59.96Q1047.3 60 1047.19 60L1041.46 60ZM1060.22 57.73Q1059.91 57.73 1059.74 57.56Q1059.56 57.38 1059.56 57.07Q1059.56 56.78 1059.74 56.61Q1059.91 56.44 1060.22 56.44Q1060.53 56.44 1060.7 56.61Q1060.87 56.78 1060.87 57.07Q1060.87 57.38 1060.7 57.56Q1060.53 57.73 1060.22 57.73ZM1078.38 60Q1078.34 60 1078.34 59.92Q1078.34 59.83 1078.38 59.83Q1078.83 59.83 1079.04 59.76Q1079.25 59.69 1079.35 59.49Q1079.46 59.29 1079.51 58.87L1080.52 52.22L1076.53 59.9Q1076.5 59.96 1076.42 59.96Q1076.35 59.96 1076.32 59.89L1074.75 52.41L1074.75 52.4L1073.68 58.38Q1073.62 58.67 1073.62 58.96Q1073.62 59.83 1074.36 59.83Q1074.4 59.83 1074.4 59.92Q1074.4 60 1074.36 60Q1074.07 60 1073.91 59.99L1073.23 59.97L1072.11 60Q1072.07 60 1072.07 59.92Q1072.07 59.83 1072.11 59.83Q1073.09 59.83 1073.35 58.4L1074.56 51.89Q1074.26 51.42 1073.63 51.42Q1073.59 51.42 1073.59 51.33Q1073.59 51.25 1073.63 51.25L1074.45 51.28L1075.23 51.25Q1075.4 51.25 1075.48 51.39Q1075.57 51.53 1075.66 51.98L1077.02 58.39L1080.52 51.6Q1080.72 51.25 1081 51.25L1081.7 51.28L1082.24 51.26Q1082.37 51.25 1082.62 51.25Q1082.65 51.25 1082.65 51.33Q1082.65 51.42 1082.62 51.42Q1082.08 51.42 1081.81 51.61Q1081.54 51.8 1081.46 52.36L1080.49 58.87Q1080.45 59.12 1080.45 59.29Q1080.45 59.61 1080.63 59.72Q1080.82 59.83 1081.31 59.83Q1081.35 59.83 1081.35 59.92Q1081.35 60 1081.31 60Q1080.94 60 1080.73 59.99L1079.85 59.97L1079 59.99Q1078.77 60 1078.38 60ZM1085.2 60Q1085.14 60 1085.14 59.92Q1085.14 59.83 1085.2 59.83Q1085.6 59.83 1086.09 59.44Q1086.58 59.05 1087.05 58.22L1091.02 51.11Q1091.05 51.07 1091.12 51.07Q1091.25 51.07 1091.27 51.14L1092.6 58.82Q1092.67 59.27 1092.75 59.47Q1092.83 59.66 1093.02 59.75Q1093.21 59.83 1093.6 59.83Q1093.65 59.83 1093.65 59.92Q1093.65 60 1093.6 60Q1093.39 60 1092.94 59.97Q1092.44 59.94 1092.14 59.94Q1091.83 59.94 1091.39 59.97Q1090.94 60 1090.74 60Q1090.7 60 1090.7 59.92Q1090.7 59.83 1090.74 59.83Q1091.23 59.83 1091.43 59.71Q1091.62 59.58 1091.62 59.24Q1091.62 59.08 1091.58 58.82L1091.16 56.35L1088.47 56.35L1087.48 58.17Q1087.07 58.89 1087.07 59.29Q1087.07 59.59 1087.31 59.71Q1087.55 59.83 1088.03 59.83Q1088.08 59.83 1088.08 59.92Q1088.07 60 1088.01 60L1087.37 59.97Q1086.78 59.94 1086.49 59.94Q1086.19 59.94 1085.8 59.97Q1085.41 60 1085.2 60ZM1088.64 56.04L1091.11 56.04L1090.52 52.62L1088.64 56.04ZM1097.78 60Q1097.74 60 1097.74 59.92Q1097.74 59.83 1097.78 59.83Q1098.2 59.83 1098.42 59.76Q1098.64 59.68 1098.74 59.48Q1098.85 59.29 1098.92 58.87L1100.07 52.38Q1100.12 52.02 1100.12 51.94Q1100.12 51.63 1099.94 51.52Q1099.76 51.42 1099.27 51.42Q1099.24 51.42 1099.24 51.33Q1099.24 51.25 1099.27 51.25L1099.87 51.26Q1100.37 51.29 1100.7 51.29Q1101.02 51.29 1101.58 51.26L1102.19 51.25Q1102.22 51.25 1102.22 51.33Q1102.22 51.42 1102.19 51.42Q1101.76 51.42 1101.55 51.5Q1101.34 51.57 1101.24 51.77Q1101.13 51.96 1101.05 52.4L1099.91 58.81Q1099.87 59.06 1099.87 59.24Q1099.87 59.54 1100.03 59.64Q1100.19 59.73 1100.61 59.73L1101.7 59.73Q1102.56 59.73 1103.16 59.24Q1103.76 58.75 1104.18 57.79Q1104.18 57.76 1104.24 57.76Q1104.28 57.76 1104.32 57.78Q1104.35 57.8 1104.34 57.83Q1104.04 58.85 1103.87 59.79Q1103.85 59.9 1103.8 59.95Q1103.75 60 1103.65 60L1097.78 60ZM1107.61 60Q1107.56 60 1107.56 59.92Q1107.56 59.83 1107.61 59.83Q1108.02 59.83 1108.51 59.44Q1109 59.05 1109.46 58.22L1113.44 51.11Q1113.46 51.07 1113.53 51.07Q1113.66 51.07 1113.69 51.14L1115.02 58.82Q1115.09 59.27 1115.17 59.47Q1115.24 59.66 1115.43 59.75Q1115.62 59.83 1116.01 59.83Q1116.07 59.83 1116.07 59.92Q1116.07 60 1116.01 60Q1115.8 60 1115.35 59.97Q1114.85 59.94 1114.56 59.94Q1114.25 59.94 1113.8 59.97Q1113.35 60 1113.16 60Q1113.11 60 1113.11 59.92Q1113.11 59.83 1113.16 59.83Q1113.65 59.83 1113.84 59.71Q1114.04 59.58 1114.04 59.24Q1114.04 59.08 1114 58.82L1113.58 56.35L1110.89 56.35L1109.89 58.17Q1109.49 58.89 1109.49 59.29Q1109.49 59.59 1109.73 59.71Q1109.96 59.83 1110.44 59.83Q1110.5 59.83 1110.49 59.92Q1110.48 60 1110.43 60L1109.78 59.97Q1109.19 59.94 1108.9 59.94Q1108.61 59.94 1108.21 59.97Q1107.82 60 1107.61 60ZM1111.06 56.04L1113.52 56.04L1112.93 52.62L1111.06 56.04ZM1120.97 60Q1120.91 60 1120.91 59.92Q1120.91 59.83 1120.97 59.83Q1121.43 59.83 1121.66 59.76Q1121.89 59.68 1122 59.48Q1122.12 59.29 1122.19 58.87L1122.72 55.79L1121.29 52.41Q1121.05 51.87 1120.81 51.64Q1120.58 51.42 1120.21 51.42Q1120.16 51.42 1120.16 51.33Q1120.16 51.25 1120.21 51.25L1120.74 51.26Q1121.14 51.29 1121.3 51.29Q1121.64 51.29 1122.26 51.26L1122.91 51.25Q1122.96 51.25 1122.96 51.31Q1122.96 51.35 1122.94 51.38Q1122.91 51.42 1122.89 51.42Q1122.52 51.42 1122.36 51.49Q1122.2 51.56 1122.2 51.71Q1122.2 51.81 1122.27 51.98L1123.66 55.32L1125.48 52.65Q1125.81 52.16 1125.81 51.87Q1125.81 51.42 1125.2 51.42Q1125.15 51.42 1125.15 51.33Q1125.15 51.25 1125.2 51.25L1125.81 51.26Q1126.34 51.29 1126.68 51.29Q1126.89 51.29 1127.17 51.26L1127.62 51.25Q1127.66 51.25 1127.66 51.33Q1127.66 51.42 1127.62 51.42Q1126.72 51.42 1125.76 52.8L1123.73 55.67L1123.17 58.87Q1123.11 59.23 1123.11 59.31Q1123.11 59.62 1123.31 59.73Q1123.52 59.83 1124.05 59.83Q1124.09 59.83 1124.09 59.92Q1124.09 60 1124.05 60Q1123.64 60 1123.42 59.99L1122.52 59.97L1121.58 59.99Q1121.36 60 1120.97 60ZM1132.73 60.17Q1132.22 60.17 1131.76 60.06Q1131.3 59.96 1130.8 59.69Q1130.68 59.62 1130.71 59.43L1130.99 57.54Q1130.99 57.47 1131.07 57.47Q1131.15 57.47 1131.16 57.54Q1131.26 58.6 1131.73 59.25Q1132.21 59.9 1133.08 59.9Q1133.75 59.9 1134.23 59.51Q1134.72 59.12 1134.84 58.33Q1134.88 58.12 1134.88 57.94Q1134.88 57.26 1134.49 56.79Q1134.1 56.33 1133.34 55.8Q1132.83 55.42 1132.53 55.16Q1132.22 54.89 1132.01 54.51Q1131.8 54.13 1131.8 53.66Q1131.8 53.48 1131.85 53.27Q1132.04 52.23 1132.89 51.66Q1133.74 51.1 1134.77 51.1Q1135.54 51.1 1136.33 51.43Q1136.51 51.53 1136.49 51.67L1136.3 53.31Q1136.3 53.35 1136.22 53.35Q1136.14 53.35 1136.14 53.31Q1136.03 52.43 1135.64 51.88Q1135.25 51.33 1134.49 51.33Q1133.95 51.33 1133.58 51.61Q1133.2 51.89 1133.03 52.31Q1132.85 52.73 1132.85 53.15Q1132.85 53.59 1133.06 53.92Q1133.26 54.26 1133.54 54.51Q1133.82 54.75 1134.35 55.13Q1135.16 55.7 1135.58 56.19Q1136 56.68 1136 57.4Q1136 57.65 1135.98 57.79Q1135.79 58.82 1134.94 59.5Q1134.09 60.17 1132.73 60.17ZM1140.44 60Q1140.4 60 1140.4 59.92Q1140.4 59.83 1140.44 59.83Q1140.88 59.83 1141.08 59.76Q1141.28 59.69 1141.39 59.5Q1141.49 59.3 1141.56 58.87L1142.71 52.38Q1142.77 52.02 1142.77 51.94Q1142.77 51.63 1142.58 51.52Q1142.39 51.42 1141.91 51.42Q1141.87 51.42 1141.87 51.33Q1141.87 51.25 1141.91 51.25L1142.51 51.26Q1143.05 51.29 1143.35 51.29Q1143.75 51.29 1144.28 51.26L1144.85 51.25Q1144.89 51.25 1144.89 51.33Q1144.89 51.42 1144.85 51.42Q1144.43 51.42 1144.22 51.5Q1144 51.59 1143.89 51.79Q1143.79 51.99 1143.72 52.41L1142.57 58.87Q1142.51 59.13 1142.51 59.34Q1142.51 59.64 1142.7 59.73Q1142.88 59.83 1143.38 59.83Q1143.41 59.83 1143.41 59.92Q1143.41 60 1143.38 60Q1143.02 60 1142.79 59.99L1141.9 59.97L1140.44 60ZM1147.6 60Q1147.54 60 1147.54 59.92Q1147.54 59.83 1147.6 59.83Q1148 59.83 1148.49 59.44Q1148.98 59.05 1149.44 58.22L1153.42 51.11Q1153.45 51.07 1153.52 51.07Q1153.64 51.07 1153.67 51.14L1155 58.82Q1155.07 59.27 1155.15 59.47Q1155.23 59.66 1155.42 59.75Q1155.6 59.83 1156 59.83Q1156.05 59.83 1156.05 59.92Q1156.05 60 1156 60Q1155.79 60 1155.34 59.97Q1154.83 59.94 1154.54 59.94Q1154.23 59.94 1153.78 59.97Q1153.34 60 1153.14 60Q1153.1 60 1153.1 59.92Q1153.1 59.83 1153.14 59.83Q1153.63 59.83 1153.83 59.71Q1154.02 59.58 1154.02 59.24Q1154.02 59.08 1153.98 58.82L1153.56 56.35L1150.87 56.35L1149.88 58.17Q1149.47 58.89 1149.47 59.29Q1149.47 59.59 1149.71 59.71Q1149.95 59.83 1150.42 59.83Q1150.48 59.83 1150.47 59.92Q1150.47 60 1150.41 60L1149.77 59.97Q1149.18 59.94 1148.88 59.94Q1148.59 59.94 1148.2 59.97Q1147.81 60 1147.6 60ZM1151.04 56.04L1153.5 56.04L1152.92 52.62L1151.04 56.04Z" fill="#8B7355"/>
<path d="M417.5 156.96Q417.47 156.96 417.44 156.83Q417.41 156.71 417.41 156.56Q417.41 156.44 417.43 156.33Q417.45 156.22 417.48 156.22L431.22 156.22Q431.25 156.22 431.28 156.34Q431.31 156.45 431.31 156.58Q431.31 156.72 431.28 156.84Q431.25 156.96 431.22 156.96L417.5 156.96ZM445.29 160Q445.24 160 445.24 159.89Q445.24 159.78 445.29 159.78Q445.85 159.78 446.12 159.69Q446.39 159.6 446.53 159.35Q446.66 159.1 446.77 158.54L448.25 150.21Q448.32 149.74 448.32 149.65Q448.32 149.25 448.08 149.11Q447.83 148.97 447.22 148.97Q447.17 148.97 447.17 148.86Q447.17 148.75 447.22 148.75L454.19 148.75Q454.33 148.75 454.28 148.91L453.93 151.2Q453.92 151.27 453.81 151.26Q453.7 151.25 453.72 151.18Q453.77 150.21 453.32 149.63Q452.87 149.06 452.04 149.06L450.93 149.06Q450.37 149.06 450.1 149.15Q449.83 149.24 449.71 149.46Q449.6 149.69 449.49 150.23L448.8 154.15L450.93 154.15Q451.67 154.15 452.04 153.84Q452.4 153.54 452.53 152.85Q452.55 152.78 452.66 152.79Q452.76 152.8 452.75 152.87L452.57 153.83L452.48 154.37Q452.37 155.05 452.33 155.32L452.21 156.09Q452.19 156.17 452.1 156.17Q452.06 156.17 452.02 156.14Q451.97 156.11 451.99 156.08Q452.03 155.9 452.03 155.61Q452.03 155.05 451.73 154.81Q451.43 154.56 450.8 154.56L448.73 154.56L448.05 158.47Q447.99 158.79 447.99 159.01Q447.99 159.48 448.35 159.63Q448.7 159.78 449.7 159.78Q449.74 159.78 449.74 159.89Q449.74 160 449.7 160Q449.2 160 448.88 159.98L447.13 159.96L445.29 160ZM468.37 150.77Q468.42 150.44 468.42 150.19Q468.42 148.97 467.25 148.97Q467.2 148.97 467.21 148.86Q467.22 148.75 467.25 148.75L468.01 148.77Q468.59 148.8 468.91 148.8Q469.22 148.8 469.79 148.77L470.44 148.75Q470.51 148.75 470.5 148.86Q470.49 148.97 470.44 148.97Q469.79 148.97 469.37 149.45Q468.95 149.94 468.78 150.86L467.85 156.13Q467.51 158.07 466.25 159.15Q465 160.23 463.22 160.23Q461.66 160.23 460.76 159.39Q459.86 158.54 459.86 157.07Q459.86 156.67 459.95 156.13L461.01 150.17Q461.06 149.85 461.06 149.61Q461.06 149.22 460.82 149.09Q460.58 148.97 459.93 148.97Q459.87 148.97 459.87 148.86Q459.87 148.75 459.91 148.75L460.76 148.77Q461.44 148.8 461.85 148.8Q462.34 148.8 463.06 148.77L463.82 148.75Q463.87 148.75 463.87 148.86Q463.87 148.97 463.82 148.97Q463.24 148.97 462.94 149.08Q462.65 149.2 462.5 149.47Q462.36 149.74 462.27 150.3L461.31 155.59Q461.19 156.24 461.19 156.87Q461.19 158.27 461.85 158.97Q462.52 159.66 463.73 159.66Q465.17 159.66 466.15 158.7Q467.13 157.75 467.42 156.08L468.37 150.77ZM474.13 160Q474.08 160 474.08 159.89Q474.08 159.78 474.13 159.78Q474.67 159.78 474.95 159.69Q475.23 159.59 475.36 159.33Q475.5 159.08 475.59 158.54L477.06 150.21Q477.14 149.74 477.14 149.63Q477.14 149.24 476.9 149.1Q476.67 148.97 476.04 148.97Q476 148.97 476 148.86Q476 148.75 476.04 148.75L476.81 148.77Q477.46 148.8 477.87 148.8Q478.29 148.8 479.01 148.77L479.8 148.75Q479.84 148.75 479.84 148.86Q479.84 148.97 479.8 148.97Q479.24 148.97 478.97 149.07Q478.7 149.16 478.57 149.42Q478.43 149.67 478.32 150.23L476.87 158.47Q476.81 158.79 476.81 159.03Q476.81 159.41 477.02 159.53Q477.23 159.66 477.77 159.66L479.17 159.66Q480.27 159.66 481.04 159.03Q481.82 158.4 482.36 157.16Q482.36 157.12 482.43 157.12Q482.48 157.12 482.53 157.15Q482.57 157.17 482.55 157.21Q482.18 158.52 481.96 159.73Q481.92 159.87 481.86 159.94Q481.8 160 481.67 160L474.13 160ZM487.61 160Q487.56 160 487.56 159.89Q487.56 159.78 487.61 159.78Q488.15 159.78 488.43 159.69Q488.71 159.59 488.85 159.33Q488.98 159.08 489.07 158.54L490.55 150.21Q490.62 149.74 490.62 149.63Q490.62 149.24 490.38 149.1Q490.15 148.97 489.52 148.97Q489.48 148.97 489.48 148.86Q489.48 148.75 489.52 148.75L490.29 148.77Q490.94 148.8 491.36 148.8Q491.77 148.8 492.49 148.77L493.28 148.75Q493.32 148.75 493.32 148.86Q493.32 148.97 493.28 148.97Q492.72 148.97 492.45 149.07Q492.18 149.16 492.05 149.42Q491.91 149.67 491.81 150.23L490.35 158.47Q490.29 158.79 490.29 159.03Q490.29 159.41 490.5 159.53Q490.71 159.66 491.25 159.66L492.65 159.66Q493.75 159.66 494.52 159.03Q495.3 158.4 495.84 157.16Q495.84 157.12 495.91 157.12Q495.96 157.12 496.01 157.15Q496.05 157.17 496.04 157.21Q495.66 158.52 495.44 159.73Q495.41 159.87 495.34 159.94Q495.28 160 495.15 160L487.61 160ZM501.45 157.01Q501.4 157.03 501.37 156.85Q501.35 156.67 501.35 156.47Q501.35 156.18 501.4 156.17L505.88 155.34Q505.92 155.32 505.95 155.5Q505.97 155.68 505.97 155.86Q505.97 156.17 505.92 156.17L501.45 157.01ZM514.2 160.22Q513.55 160.22 512.96 160.08Q512.36 159.95 511.71 159.6Q511.57 159.51 511.61 159.26L511.97 156.83Q511.97 156.74 512.07 156.74Q512.16 156.74 512.18 156.83Q512.31 158.2 512.92 159.04Q513.53 159.87 514.65 159.87Q515.51 159.87 516.13 159.37Q516.75 158.87 516.92 157.86Q516.97 157.59 516.97 157.35Q516.97 156.47 516.47 155.88Q515.96 155.28 514.99 154.6Q514.32 154.11 513.94 153.77Q513.55 153.43 513.28 152.94Q513.01 152.46 513.01 151.85Q513.01 151.61 513.06 151.34Q513.32 150.01 514.41 149.28Q515.49 148.55 516.83 148.55Q517.82 148.55 518.82 148.98Q519.06 149.11 519.04 149.29L518.79 151.4Q518.79 151.45 518.69 151.45Q518.59 151.45 518.59 151.4Q518.45 150.26 517.94 149.56Q517.44 148.86 516.47 148.86Q515.76 148.86 515.29 149.22Q514.81 149.58 514.59 150.12Q514.36 150.66 514.36 151.2Q514.36 151.76 514.62 152.19Q514.88 152.62 515.24 152.94Q515.6 153.25 516.29 153.74Q517.33 154.47 517.87 155.1Q518.41 155.73 518.41 156.65Q518.41 156.98 518.37 157.16Q518.14 158.49 517.04 159.35Q515.94 160.22 514.2 160.22ZM526.11 160Q526.06 160 526.06 159.89Q526.06 159.78 526.11 159.78Q526.74 159.78 527.05 159.69Q527.36 159.6 527.51 159.35Q527.66 159.1 527.77 158.54L529.23 150.21Q529.28 149.88 529.28 149.67Q529.28 149.33 529.1 149.21Q528.92 149.09 528.44 149.09L528.06 149.09Q526.04 149.09 525.29 151.74Q525.27 151.79 525.16 151.78Q525.05 151.77 525.07 151.7Q525.21 151.22 525.49 150.08Q525.77 148.95 525.88 148.35Q525.9 148.3 526.01 148.31Q526.11 148.32 526.1 148.37Q526.04 148.75 526.8 148.75Q528.13 148.8 530.09 148.8Q531.01 148.8 532.13 148.77L533.26 148.75Q533.8 148.75 534.07 148.66Q534.34 148.57 534.45 148.3Q534.48 148.25 534.57 148.26Q534.66 148.26 534.65 148.34Q534.5 148.84 534.24 150.04Q533.98 151.23 533.91 151.7Q533.89 151.76 533.79 151.76Q533.69 151.76 533.71 151.68Q533.8 151.18 533.8 150.84Q533.8 149.09 532 149.09L531.66 149.09Q531.05 149.09 530.83 149.32Q530.61 149.54 530.51 150.24L529.05 158.54Q528.98 159.01 528.98 159.12Q528.98 159.53 529.25 159.66Q529.52 159.78 530.29 159.78Q530.33 159.78 530.33 159.89Q530.33 160 530.29 160Q529.75 160 529.44 159.98L528.18 159.96L526.11 160ZM536.3 160Q536.23 160 536.23 159.89Q536.23 159.78 536.3 159.78Q536.82 159.78 537.45 159.28Q538.08 158.78 538.68 157.71L543.79 148.57Q543.83 148.52 543.92 148.52Q544.08 148.52 544.11 148.61L545.82 158.49Q545.91 159.06 546.01 159.32Q546.11 159.57 546.36 159.68Q546.6 159.78 547.1 159.78Q547.17 159.78 547.17 159.89Q547.17 160 547.1 160Q546.83 160 546.26 159.96Q545.61 159.93 545.23 159.93Q544.83 159.93 544.26 159.96Q543.68 160 543.43 160Q543.38 160 543.38 159.89Q543.38 159.78 543.43 159.78Q544.06 159.78 544.31 159.62Q544.56 159.46 544.56 159.03Q544.56 158.81 544.51 158.49L543.97 155.3L540.51 155.3L539.24 157.64Q538.71 158.58 538.71 159.08Q538.71 159.48 539.02 159.63Q539.33 159.78 539.94 159.78Q540.01 159.78 540 159.89Q539.99 160 539.92 160L539.09 159.96Q538.34 159.93 537.96 159.93Q537.58 159.93 537.08 159.96Q536.57 160 536.3 160ZM540.73 154.91L543.9 154.91L543.14 150.51L540.73 154.91ZM557.76 160.23Q555.33 160.23 554.19 158.91Q553.06 157.59 553.06 155.61Q553.06 155.07 553.19 154.31Q553.49 152.58 554.51 151.28Q555.53 149.97 556.95 149.26Q558.37 148.55 559.85 148.55Q560.58 148.55 561.33 148.71Q562.08 148.88 562.49 149.15Q562.6 149.22 562.63 149.3Q562.65 149.38 562.64 149.58L562.42 151.7Q562.4 151.76 562.31 151.76Q562.22 151.76 562.22 151.7Q562.04 150.35 561.24 149.67Q560.44 148.98 559.16 148.98Q557.45 148.98 556.25 150.27Q555.04 151.56 554.7 153.77Q554.57 154.47 554.57 155.25Q554.57 156.58 554.98 157.65Q555.38 158.72 556.13 159.33Q556.88 159.95 557.87 159.95Q558.86 159.95 559.82 159.27Q560.78 158.6 561.65 157.23Q561.66 157.19 561.72 157.19Q561.77 157.19 561.81 157.23Q561.84 157.26 561.83 157.3L561.3 159.28Q561.25 159.5 561.2 159.57Q561.14 159.64 560.98 159.69Q559.34 160.23 557.76 160.23ZM567.3 160Q567.24 160 567.24 159.89Q567.24 159.78 567.3 159.78Q567.84 159.78 568.12 159.69Q568.4 159.59 568.54 159.33Q568.68 159.08 568.77 158.54L570.25 150.21Q570.32 149.74 570.32 149.63Q570.32 149.24 570.09 149.1Q569.85 148.97 569.22 148.97Q569.19 148.97 569.19 148.86Q569.19 148.75 569.22 148.75L570 148.77Q570.65 148.8 571.06 148.8Q571.47 148.8 572.19 148.77L572.99 148.75Q573.02 148.75 573.02 148.86Q573.02 148.97 572.99 148.97Q572.43 148.97 572.16 149.07Q571.89 149.16 571.75 149.43Q571.62 149.69 571.51 150.24L570.83 154.1L574.97 150.32Q575.6 149.72 575.6 149.36Q575.6 148.97 574.8 148.97Q574.77 148.97 574.77 148.86Q574.77 148.75 574.8 148.75L575.54 148.77Q576.26 148.8 576.8 148.8Q577.32 148.8 577.86 148.77L578.44 148.75Q578.49 148.75 578.49 148.86Q578.49 148.97 578.44 148.97Q577.77 148.97 576.95 149.34Q576.12 149.7 575.36 150.42L572.46 153.02L574.23 156.27Q575.15 157.97 575.61 158.68Q576.08 159.39 576.4 159.59Q576.71 159.78 577.2 159.78Q577.25 159.78 577.25 159.89Q577.25 160 577.2 160L575.61 160Q574.88 160 574.7 159.9Q574.52 159.8 574.05 158.84Q573.58 157.88 573.26 157.26L571.46 153.92L570.74 154.55L570.03 158.54Q570 158.78 569.96 158.96Q569.93 159.14 569.93 159.28Q569.93 159.59 570.13 159.69Q570.34 159.78 570.95 159.78Q570.99 159.78 570.99 159.89Q570.99 160 570.95 160Q570.47 160 570.21 159.98L569.13 159.96L567.3 160ZM594.51 160.22Q593.87 160.22 593.27 160.08Q592.68 159.95 592.03 159.6Q591.89 159.51 591.92 159.26L592.28 156.83Q592.28 156.74 592.38 156.74Q592.48 156.74 592.5 156.83Q592.62 158.2 593.24 159.04Q593.85 159.87 594.96 159.87Q595.83 159.87 596.45 159.37Q597.07 158.87 597.23 157.86Q597.29 157.59 597.29 157.35Q597.29 156.47 596.78 155.88Q596.28 155.28 595.31 154.6Q594.64 154.11 594.25 153.77Q593.87 153.43 593.6 152.94Q593.33 152.46 593.33 151.85Q593.33 151.61 593.38 151.34Q593.63 150.01 594.72 149.28Q595.81 148.55 597.14 148.55Q598.13 148.55 599.14 148.98Q599.37 149.11 599.36 149.29L599.1 151.4Q599.1 151.45 599.01 151.45Q598.91 151.45 598.91 151.4Q598.76 150.26 598.26 149.56Q597.75 148.86 596.78 148.86Q596.08 148.86 595.6 149.22Q595.13 149.58 594.9 150.12Q594.68 150.66 594.68 151.2Q594.68 151.76 594.94 152.19Q595.2 152.62 595.56 152.94Q595.92 153.25 596.6 153.74Q597.65 154.47 598.19 155.1Q598.73 155.73 598.73 156.65Q598.73 156.98 598.69 157.16Q598.46 158.49 597.36 159.35Q596.26 160.22 594.51 160.22ZM609.13 160.22Q607.89 160.22 606.98 159.62Q606.07 159.03 605.59 158Q605.12 156.98 605.12 155.66Q605.12 155.03 605.22 154.37Q605.51 152.69 606.42 151.37Q607.33 150.05 608.64 149.3Q609.94 148.55 611.42 148.55Q612.69 148.55 613.62 149.14Q614.55 149.72 615.03 150.74Q615.52 151.76 615.52 153.05Q615.52 153.74 615.39 154.37Q615.09 156.09 614.14 157.43Q613.2 158.76 611.88 159.49Q610.55 160.22 609.13 160.22ZM609.9 159.75Q611.38 159.75 612.45 158.58Q613.52 157.41 613.92 155.32Q614.1 154.44 614.1 153.56Q614.1 152.24 613.69 151.21Q613.29 150.17 612.51 149.58Q611.74 148.98 610.7 148.98Q609.2 148.98 608.12 150.18Q607.04 151.38 606.68 153.41Q606.52 154.28 606.52 155.1Q606.52 156.42 606.92 157.47Q607.31 158.52 608.08 159.14Q608.84 159.75 609.9 159.75ZM620.52 160Q620.47 160 620.47 159.89Q620.47 159.78 620.52 159.78Q621.08 159.78 621.35 159.69Q621.62 159.6 621.76 159.35Q621.89 159.1 622 158.54L623.48 150.21Q623.55 149.74 623.55 149.65Q623.55 149.25 623.3 149.11Q623.06 148.97 622.45 148.97Q622.4 148.97 622.4 148.86Q622.4 148.75 622.45 148.75L629.42 148.75Q629.56 148.75 629.51 148.91L629.16 151.2Q629.15 151.27 629.04 151.26Q628.93 151.25 628.95 151.18Q629 150.21 628.55 149.63Q628.1 149.06 627.27 149.06L626.16 149.06Q625.6 149.06 625.33 149.15Q625.06 149.24 624.94 149.46Q624.83 149.69 624.72 150.23L624.03 154.15L626.16 154.15Q626.9 154.15 627.27 153.84Q627.63 153.54 627.76 152.85Q627.78 152.78 627.89 152.79Q627.99 152.8 627.98 152.87L627.8 153.83L627.71 154.37Q627.6 155.05 627.56 155.32L627.44 156.09Q627.42 156.17 627.33 156.17Q627.29 156.17 627.25 156.14Q627.2 156.11 627.22 156.08Q627.26 155.9 627.26 155.61Q627.26 155.05 626.96 154.81Q626.66 154.56 626.03 154.56L623.96 154.56L623.28 158.47Q623.22 158.79 623.22 159.01Q623.22 159.48 623.57 159.63Q623.93 159.78 624.93 159.78Q624.97 159.78 624.97 159.89Q624.97 160 624.93 160Q624.43 160 624.11 159.98L622.36 159.96L620.52 160ZM635.88 160Q635.82 160 635.82 159.89Q635.82 159.78 635.88 159.78Q636.51 159.78 636.81 159.69Q637.12 159.6 637.27 159.35Q637.43 159.1 637.53 158.54L638.99 150.21Q639.05 149.88 639.05 149.67Q639.05 149.33 638.87 149.21Q638.69 149.09 638.2 149.09L637.82 149.09Q635.81 149.09 635.05 151.74Q635.03 151.79 634.92 151.78Q634.82 151.77 634.83 151.7Q634.98 151.22 635.26 150.08Q635.54 148.95 635.64 148.35Q635.66 148.3 635.77 148.31Q635.88 148.32 635.86 148.37Q635.81 148.75 636.56 148.75Q637.89 148.8 639.86 148.8Q640.77 148.8 641.89 148.77L643.02 148.75Q643.56 148.75 643.83 148.66Q644.1 148.57 644.21 148.3Q644.25 148.25 644.34 148.26Q644.43 148.26 644.41 148.34Q644.27 148.84 644 150.04Q643.74 151.23 643.67 151.7Q643.65 151.76 643.55 151.76Q643.46 151.76 643.47 151.68Q643.56 151.18 643.56 150.84Q643.56 149.09 641.76 149.09L641.42 149.09Q640.81 149.09 640.59 149.32Q640.38 149.54 640.27 150.24L638.81 158.54Q638.74 159.01 638.74 159.12Q638.74 159.53 639.01 159.66Q639.28 159.78 640.05 159.78Q640.09 159.78 640.09 159.89Q640.09 160 640.05 160Q639.51 160 639.21 159.98L637.95 159.96L635.88 160ZM654.6 150.24Q654.44 149.52 654.22 149.25Q654 148.97 653.57 148.97Q653.52 148.97 653.52 148.86Q653.52 148.75 653.57 148.75L654.26 148.77Q654.76 148.8 654.98 148.8Q655.34 148.8 655.77 148.77L656.24 148.75Q656.33 148.75 656.33 148.86Q656.33 148.97 656.24 148.97Q655.97 148.97 655.86 149.04Q655.75 149.11 655.75 149.31Q655.75 149.47 655.88 150.06L656.51 152.85L657.75 150.42Q658.09 149.76 658.09 149.42Q658.09 148.97 657.5 148.97Q657.44 148.97 657.44 148.86Q657.44 148.75 657.5 148.75L657.95 148.77Q658.31 148.8 658.63 148.8Q658.94 148.8 659.33 148.77L659.96 148.75Q660.03 148.75 660.03 148.86Q660.03 148.97 659.96 148.97Q659.44 148.97 659.03 149.27Q658.63 149.58 658.14 150.51L656.63 153.45L657.71 158.22L661.71 150.42Q661.96 149.96 661.96 149.63Q661.96 148.97 660.95 148.97Q660.88 148.97 660.88 148.86Q660.88 148.75 660.95 148.75L661.6 148.77Q662.14 148.8 662.59 148.8Q662.91 148.8 663.35 148.77L664.05 148.75Q664.12 148.75 664.12 148.86Q664.12 148.97 664.05 148.97Q663.49 148.97 663.04 149.28Q662.59 149.6 662.12 150.51L657.19 159.98Q657.17 160.02 657.11 160.04Q657.05 160.05 656.97 160.05Q656.83 160.05 656.79 159.98L655.66 154.94L653.05 159.98Q653 160.05 652.83 160.05Q652.64 160.05 652.62 159.98L650.44 150.24Q650.3 149.54 650.04 149.25Q649.79 148.97 649.32 148.97Q649.27 148.97 649.27 148.86Q649.27 148.75 649.32 148.75L650.06 148.77Q650.57 148.8 650.82 148.8Q651.3 148.8 651.92 148.77L652.56 148.75Q652.64 148.75 652.64 148.86Q652.64 148.97 652.56 148.97Q651.66 148.97 651.66 149.69Q651.66 149.85 651.72 150.06L653.57 158.22L655.53 154.38L654.6 150.24ZM665.07 160Q665 160 665 159.89Q665 159.78 665.07 159.78Q665.6 159.78 666.23 159.28Q666.86 158.78 667.45 157.71L672.56 148.57Q672.6 148.52 672.69 148.52Q672.85 148.52 672.89 148.61L674.6 158.49Q674.69 159.06 674.79 159.32Q674.88 159.57 675.13 159.68Q675.37 159.78 675.87 159.78Q675.95 159.78 675.95 159.89Q675.95 160 675.87 160Q675.6 160 675.03 159.96Q674.38 159.93 674 159.93Q673.61 159.93 673.03 159.96Q672.45 160 672.2 160Q672.15 160 672.15 159.89Q672.15 159.78 672.2 159.78Q672.83 159.78 673.08 159.62Q673.34 159.46 673.34 159.03Q673.34 158.81 673.28 158.49L672.74 155.3L669.29 155.3L668.01 157.64Q667.49 158.58 667.49 159.08Q667.49 159.48 667.79 159.63Q668.1 159.78 668.71 159.78Q668.78 159.78 668.77 159.89Q668.76 160 668.69 160L667.86 159.96Q667.11 159.93 666.73 159.93Q666.35 159.93 665.85 159.96Q665.34 160 665.07 160ZM669.5 154.91L672.67 154.91L671.91 150.51L669.5 154.91ZM681.31 160Q681.24 160 681.24 159.89Q681.24 159.78 681.31 159.78Q681.9 159.78 682.21 159.69Q682.52 159.59 682.67 159.33Q682.82 159.08 682.93 158.54L684.41 150.21Q684.48 149.74 684.48 149.63Q684.48 149.24 684.23 149.1Q683.97 148.97 683.31 148.97Q683.24 148.97 683.24 148.86Q683.24 148.75 683.31 148.75L684.14 148.77Q684.82 148.8 685.25 148.8L686.28 148.75Q686.8 148.7 687.18 148.7Q689.93 148.7 689.93 150.57Q689.93 150.84 689.88 151.16Q689.72 152.1 689.08 152.85Q688.44 153.59 687.52 154.02Q688.47 156.22 689.17 157.45Q689.86 158.69 690.47 159.24Q691.08 159.78 691.73 159.78Q691.8 159.78 691.8 159.89Q691.8 160 691.73 160L689.55 160Q689.12 160 688.29 158.54Q687.47 157.08 686.44 154.4Q685.95 154.51 685.38 154.51Q685.14 154.49 684.91 154.47L684.19 158.54Q684.12 158.88 684.12 159.15Q684.12 159.53 684.35 159.66Q684.59 159.78 685.25 159.78Q685.32 159.78 685.32 159.89Q685.32 160 685.27 160Q684.73 160 684.44 159.98L683.31 159.96L681.31 160ZM685 154.01Q685.32 154.06 685.72 154.06Q686.96 154.06 687.6 153.52Q688.24 152.98 688.47 151.68Q688.56 151.25 688.56 150.77Q688.56 149.83 688.1 149.42Q687.65 149 686.87 149Q686.42 149 686.22 149.07Q686.03 149.13 685.9 149.38Q685.77 149.63 685.67 150.24L685 154.01ZM696.99 160Q696.95 160 696.95 159.89Q696.95 159.78 696.99 159.78Q697.55 159.78 697.82 159.69Q698.09 159.6 698.22 159.35Q698.36 159.1 698.46 158.54L699.94 150.21Q700.01 149.74 700.01 149.65Q700.01 149.25 699.77 149.11Q699.53 148.97 698.91 148.97Q698.86 148.97 698.86 148.86Q698.86 148.75 698.91 148.75L705.86 148.75Q706.01 148.75 705.97 148.91L705.61 151.2Q705.61 151.25 705.54 151.25Q705.48 151.25 705.44 151.23Q705.39 151.2 705.39 151.18Q705.47 150.21 705.02 149.63Q704.57 149.06 703.74 149.06L702.62 149.06Q702.06 149.06 701.8 149.15Q701.54 149.24 701.42 149.47Q701.29 149.7 701.2 150.23L700.55 153.93L702.93 153.93Q703.68 153.93 704.04 153.65Q704.4 153.36 704.53 152.64Q704.53 152.58 704.64 152.58Q704.67 152.58 704.72 152.61Q704.76 152.64 704.75 152.67Q704.69 153.11 704.58 153.57L704.48 154.15L704.21 155.88Q704.19 155.95 704.08 155.94Q703.97 155.93 703.99 155.86Q704.03 155.68 704.03 155.39Q704.03 154.85 703.73 154.6Q703.43 154.35 702.8 154.35L700.48 154.35L699.74 158.47Q699.69 158.79 699.69 159.01Q699.69 159.39 699.91 159.52Q700.14 159.66 700.75 159.66L702.24 159.66Q703.05 159.66 703.8 159Q704.55 158.34 705.02 157.26Q705.03 157.19 705.14 157.22Q705.25 157.25 705.21 157.3Q704.89 158.34 704.64 159.73Q704.6 159.89 704.55 159.95Q704.49 160 704.35 160L696.99 160ZM719.54 160Q719.51 160 719.51 159.89Q719.51 159.78 719.54 159.78Q720.1 159.78 720.37 159.69Q720.64 159.6 720.77 159.35Q720.91 159.1 721.02 158.54L722.49 150.21Q722.57 149.74 722.57 149.65Q722.57 149.25 722.32 149.11Q722.08 148.97 721.47 148.97Q721.41 148.97 721.41 148.86Q721.41 148.75 721.47 148.75L728.42 148.75Q728.56 148.75 728.52 148.91L728.16 151.2Q728.16 151.25 728.09 151.25Q728.04 151.25 727.99 151.23Q727.95 151.2 727.95 151.18Q728.02 150.21 727.57 149.63Q727.12 149.06 726.29 149.06L725.18 149.06Q724.62 149.06 724.36 149.15Q724.1 149.24 723.97 149.47Q723.84 149.7 723.75 150.23L723.11 153.93L725.48 153.93Q726.24 153.93 726.6 153.65Q726.96 153.36 727.08 152.64Q727.08 152.58 727.19 152.58Q727.23 152.58 727.27 152.61Q727.32 152.64 727.3 152.67Q727.25 153.11 727.14 153.57L727.03 154.15L726.76 155.88Q726.74 155.95 726.63 155.94Q726.53 155.93 726.54 155.86Q726.58 155.68 726.58 155.39Q726.58 154.85 726.28 154.6Q725.99 154.35 725.36 154.35L723.03 154.35L722.3 158.47Q722.24 158.79 722.24 159.01Q722.24 159.39 722.47 159.52Q722.69 159.66 723.3 159.66L724.8 159.66Q725.61 159.66 726.35 159Q727.1 158.34 727.57 157.26Q727.59 157.19 727.7 157.22Q727.8 157.25 727.77 157.3Q727.44 158.34 727.19 159.73Q727.16 159.89 727.1 159.95Q727.05 160 726.9 160L719.54 160ZM736.62 150.23L735.27 158.04Q735.2 158.51 735.2 158.69Q735.2 159.78 736.26 159.78Q736.3 159.78 736.3 159.89Q736.3 160 736.26 160Q735.87 160 735.63 159.98L734.75 159.96L733.2 160Q733.17 160 733.17 159.89Q733.17 159.78 733.2 159.78Q734.55 159.78 734.84 158.04L736.32 149.72Q736.03 149.31 735.74 149.14Q735.45 148.97 735.13 148.97Q735.08 148.97 735.08 148.86Q735.08 148.75 735.13 148.75L736.43 148.79L737.33 148.75Q737.43 148.75 737.49 148.81Q737.54 148.88 737.61 149.07Q737.74 149.43 737.88 149.69L742.22 157.93L743.5 150.73Q743.57 150.26 743.57 150.08Q743.57 148.97 742.51 148.97Q742.47 148.97 742.47 148.86Q742.47 148.75 742.51 148.75L743.12 148.77Q743.66 148.8 744.04 148.8Q744.33 148.8 744.87 148.77L745.57 148.75Q745.61 148.75 745.61 148.86Q745.61 148.97 745.57 148.97Q744.24 148.97 743.93 150.73L742.24 160.16Q742.24 160.2 742.19 160.23Q742.13 160.27 742.06 160.27Q741.95 160.27 741.9 160.18L736.62 150.23ZM755.25 160.22Q753.71 160.22 752.61 159.64Q751.51 159.06 750.94 158.03Q750.38 156.99 750.38 155.64Q750.38 155 750.5 154.37Q750.81 152.69 751.83 151.37Q752.86 150.05 754.37 149.3Q755.88 148.55 757.58 148.55Q758.33 148.55 759.02 148.71Q759.72 148.88 760.11 149.16Q760.2 149.25 760.22 149.32Q760.24 149.38 760.22 149.58L760.02 151.7Q760.01 151.77 759.92 151.77Q759.83 151.77 759.81 151.7Q759.65 150.39 758.88 149.68Q758.12 148.97 756.84 148.97Q754.95 148.97 753.68 150.24Q752.41 151.52 752.03 153.72Q751.91 154.47 751.91 155.23Q751.91 156.63 752.37 157.69Q752.84 158.74 753.71 159.31Q754.59 159.87 755.76 159.87Q756.48 159.87 756.9 159.69Q757.32 159.51 757.57 159.06Q757.81 158.6 757.94 157.73Q758.04 157.05 758.04 156.67Q758.04 156.29 757.9 156.11Q757.76 155.93 757.43 155.87Q757.11 155.81 756.46 155.81Q756.42 155.81 756.4 155.76Q756.37 155.72 756.37 155.66Q756.37 155.61 756.4 155.56Q756.42 155.52 756.46 155.52Q757.68 155.61 758.49 155.61Q759.27 155.61 760.1 155.55Q760.17 155.55 760.17 155.68Q760.17 155.81 760.1 155.81Q759.77 155.79 759.62 155.92Q759.47 156.06 759.37 156.45Q759.27 156.85 759.11 157.91Q759 158.61 758.97 159Q758.94 159.39 758.93 159.5Q758.91 159.6 758.87 159.64Q758.84 159.68 758.73 159.71Q756.75 160.22 755.25 160.22ZM765.57 160Q765.51 160 765.51 159.89Q765.51 159.78 765.57 159.78Q766.13 159.78 766.39 159.69Q766.65 159.6 766.78 159.35Q766.92 159.1 767.01 158.54L768.48 150.21Q768.56 149.74 768.56 149.63Q768.56 149.24 768.31 149.1Q768.07 148.97 767.46 148.97Q767.4 148.97 767.4 148.86Q767.4 148.75 767.46 148.75L768.23 148.77Q768.92 148.8 769.31 148.8Q769.82 148.8 770.5 148.77L771.24 148.75Q771.29 148.75 771.29 148.86Q771.29 148.97 771.24 148.97Q770.7 148.97 770.42 149.07Q770.14 149.18 770 149.44Q769.87 149.7 769.78 150.24L768.3 158.54Q768.23 158.88 768.23 159.15Q768.23 159.53 768.47 159.66Q768.7 159.78 769.35 159.78Q769.38 159.78 769.38 159.89Q769.38 160 769.35 160Q768.88 160 768.59 159.98L767.44 159.96L765.57 160ZM778.92 150.23L777.57 158.04Q777.5 158.51 777.5 158.69Q777.5 159.78 778.56 159.78Q778.6 159.78 778.6 159.89Q778.6 160 778.56 160Q778.17 160 777.93 159.98L777.05 159.96L775.5 160Q775.47 160 775.47 159.89Q775.47 159.78 775.5 159.78Q776.85 159.78 777.14 158.04L778.62 149.72Q778.33 149.31 778.04 149.14Q777.75 148.97 777.43 148.97Q777.38 148.97 777.38 148.86Q777.38 148.75 777.43 148.75L778.73 148.79L779.63 148.75Q779.73 148.75 779.79 148.81Q779.84 148.88 779.91 149.07Q780.04 149.43 780.18 149.69L784.52 157.93L785.8 150.73Q785.87 150.26 785.87 150.08Q785.87 148.97 784.81 148.97Q784.77 148.97 784.77 148.86Q784.77 148.75 784.81 148.75L785.42 148.77Q785.96 148.8 786.34 148.8Q786.63 148.8 787.17 148.77L787.87 148.75Q787.91 148.75 787.91 148.86Q787.91 148.97 787.87 148.97Q786.54 148.97 786.23 150.73L784.54 160.16Q784.54 160.2 784.49 160.23Q784.43 160.27 784.36 160.27Q784.25 160.27 784.2 160.18L778.92 150.23ZM791.92 160Q791.88 160 791.88 159.89Q791.88 159.78 791.92 159.78Q792.48 159.78 792.75 159.69Q793.02 159.6 793.15 159.35Q793.29 159.1 793.4 158.54L794.87 150.21Q794.94 149.74 794.94 149.65Q794.94 149.25 794.7 149.11Q794.46 148.97 793.85 148.97Q793.79 148.97 793.79 148.86Q793.79 148.75 793.85 148.75L800.79 148.75Q800.94 148.75 800.9 148.91L800.54 151.2Q800.54 151.25 800.47 151.25Q800.42 151.25 800.37 151.23Q800.33 151.2 800.33 151.18Q800.4 150.21 799.95 149.63Q799.5 149.06 798.67 149.06L797.55 149.06Q797 149.06 796.73 149.15Q796.47 149.24 796.35 149.47Q796.22 149.7 796.13 150.23L795.48 153.93L797.86 153.93Q798.62 153.93 798.98 153.65Q799.34 153.36 799.46 152.64Q799.46 152.58 799.57 152.58Q799.61 152.58 799.65 152.61Q799.7 152.64 799.68 152.67Q799.62 153.11 799.52 153.57L799.41 154.15L799.14 155.88Q799.12 155.95 799.01 155.94Q798.9 155.93 798.92 155.86Q798.96 155.68 798.96 155.39Q798.96 154.85 798.66 154.6Q798.36 154.35 797.73 154.35L795.41 154.35L794.67 158.47Q794.62 158.79 794.62 159.01Q794.62 159.39 794.84 159.52Q795.07 159.66 795.68 159.66L797.18 159.66Q797.99 159.66 798.73 159Q799.48 158.34 799.95 157.26Q799.97 157.19 800.07 157.22Q800.18 157.25 800.15 157.3Q799.82 158.34 799.57 159.73Q799.53 159.89 799.48 159.95Q799.43 160 799.28 160L791.92 160ZM805.76 160Q805.73 160 805.73 159.89Q805.73 159.78 805.76 159.78Q806.32 159.78 806.59 159.69Q806.86 159.6 806.99 159.35Q807.13 159.1 807.24 158.54L808.71 150.21Q808.79 149.74 808.79 149.65Q808.79 149.25 808.54 149.11Q808.3 148.97 807.69 148.97Q807.63 148.97 807.63 148.86Q807.63 148.75 807.69 148.75L814.64 148.75Q814.78 148.75 814.74 148.91L814.38 151.2Q814.38 151.25 814.31 151.25Q814.26 151.25 814.21 151.23Q814.17 151.2 814.17 151.18Q814.24 150.21 813.79 149.63Q813.34 149.06 812.51 149.06L811.4 149.06Q810.84 149.06 810.58 149.15Q810.32 149.24 810.19 149.47Q810.06 149.7 809.97 150.23L809.33 153.93L811.7 153.93Q812.46 153.93 812.82 153.65Q813.18 153.36 813.3 152.64Q813.3 152.58 813.41 152.58Q813.45 152.58 813.49 152.61Q813.54 152.64 813.52 152.67Q813.47 153.11 813.36 153.57L813.25 154.15L812.98 155.88Q812.96 155.95 812.85 155.94Q812.75 155.93 812.76 155.86Q812.8 155.68 812.8 155.39Q812.8 154.85 812.5 154.6Q812.21 154.35 811.58 154.35L809.25 154.35L808.52 158.47Q808.46 158.79 808.46 159.01Q808.46 159.39 808.69 159.52Q808.91 159.66 809.52 159.66L811.02 159.66Q811.83 159.66 812.57 159Q813.32 158.34 813.79 157.26Q813.81 157.19 813.92 157.22Q814.02 157.25 813.99 157.3Q813.66 158.34 813.41 159.73Q813.38 159.89 813.32 159.95Q813.27 160 813.12 160L805.76 160ZM819.59 160Q819.51 160 819.51 159.89Q819.51 159.78 819.59 159.78Q820.18 159.78 820.49 159.69Q820.79 159.59 820.94 159.33Q821.1 159.08 821.21 158.54L822.68 150.21Q822.75 149.74 822.75 149.63Q822.75 149.24 822.5 149.1Q822.25 148.97 821.58 148.97Q821.51 148.97 821.51 148.86Q821.51 148.75 821.58 148.75L822.41 148.77Q823.1 148.8 823.53 148.8L824.55 148.75Q825.08 148.7 825.45 148.7Q828.21 148.7 828.21 150.57Q828.21 150.84 828.15 151.16Q827.99 152.1 827.35 152.85Q826.71 153.59 825.8 154.02Q826.75 156.22 827.44 157.45Q828.14 158.69 828.75 159.24Q829.36 159.78 830.01 159.78Q830.08 159.78 830.08 159.89Q830.08 160 830.01 160L827.83 160Q827.4 160 826.57 158.54Q825.74 157.08 824.72 154.4Q824.23 154.51 823.65 154.51Q823.42 154.49 823.19 154.47L822.47 158.54Q822.39 158.88 822.39 159.15Q822.39 159.53 822.63 159.66Q822.86 159.78 823.53 159.78Q823.6 159.78 823.6 159.89Q823.6 160 823.55 160Q823.01 160 822.72 159.98L821.58 159.96L819.59 160ZM823.28 154.01Q823.6 154.06 824 154.06Q825.24 154.06 825.88 153.52Q826.52 152.98 826.75 151.68Q826.84 151.25 826.84 150.77Q826.84 149.83 826.38 149.42Q825.92 149 825.15 149Q824.7 149 824.5 149.07Q824.3 149.13 824.18 149.38Q824.05 149.63 823.94 150.24L823.28 154.01ZM844.28 156.96Q844.25 156.96 844.22 156.83Q844.19 156.71 844.19 156.56Q844.19 156.44 844.21 156.33Q844.23 156.22 844.26 156.22L858 156.22Q858.03 156.22 858.06 156.34Q858.09 156.45 858.09 156.58Q858.09 156.72 858.06 156.84Q858.03 156.96 858 156.96L844.28 156.96Z" fill="#8B7355"/>
<path d="M303.2 212.5Q303.57 212.5 303.57 213.24Q303.57 213.99 303.2 213.99Q299.48 213.99 297.68 214.73Q295.88 215.48 295.26 217.27Q294.64 219.07 294.64 222.79L294.64 292.48Q294.64 305.38 288.63 312.75Q282.61 320.13 271.33 320.13Q266.99 320.13 264.38 318.52Q261.78 316.91 261.78 314.18Q261.78 312.07 263.02 310.71Q264.26 309.34 266.62 309.34Q269.1 309.34 270.4 310.52Q271.7 311.7 272.94 314.06Q274.06 316.04 274.86 316.85Q275.67 317.65 277.03 317.65Q280.88 317.65 282.8 312.82Q284.72 307.98 284.72 297.07L284.72 222.54Q284.72 218.82 283.85 217.09Q282.98 215.35 280.57 214.67Q278.15 213.99 273.06 213.99Q272.82 213.99 272.82 213.24Q272.82 212.5 273.06 212.5L280.38 212.62Q286.08 212.87 289.56 212.87Q292.78 212.87 297.74 212.62L303.2 212.5ZM312.48 290Q312.11 290 312.11 289.26Q312.11 288.51 312.48 288.51Q317.07 288.51 318.49 286.84Q319.92 285.16 319.92 279.96L319.92 257.02Q319.92 252.68 319.05 250.75Q318.18 248.83 315.95 248.83Q313.84 248.83 310.62 250.44L310.5 250.44Q310 250.44 309.81 249.82Q309.63 249.2 310 248.96L326.86 241.14L327.36 241.02Q327.73 241.02 328.17 241.39Q328.6 241.76 328.6 242.26Q328.6 244 328.48 247.72Q328.35 251.44 328.35 256.89L328.35 279.96Q328.35 285.16 329.78 286.84Q331.2 288.51 335.79 288.51Q336.16 288.51 336.16 289.26Q336.16 290 335.79 290Q332.82 290 330.96 289.88L324.14 289.75L317.32 289.88Q315.46 290 312.48 290ZM323.39 227.13Q320.54 227.13 318.87 225.58Q317.19 224.03 317.19 221.18Q317.19 218.45 318.87 216.96Q320.54 215.48 323.39 215.48Q326.12 215.48 327.67 216.96Q329.22 218.45 329.22 221.18Q329.22 224.03 327.73 225.58Q326.24 227.13 323.39 227.13ZM376.57 290Q376.2 290 376.2 289.26Q376.2 288.51 376.57 288.51Q379.67 288.51 381.22 287.83Q382.77 287.15 383.33 285.35Q383.89 283.55 383.89 279.96L383.89 260.49Q383.89 253.3 381.28 249.95Q378.68 246.6 372.98 246.6Q369.5 246.6 365.78 248.4Q362.06 250.2 359.09 253.3L359.09 279.96Q359.09 283.55 359.65 285.35Q360.2 287.15 361.75 287.83Q363.3 288.51 366.53 288.51Q366.9 288.51 366.9 289.26Q366.9 290 366.53 290Q363.55 290 361.69 289.88L354.87 289.75L347.93 289.88Q346.19 290 343.22 290Q342.84 290 342.84 289.26Q342.84 288.51 343.22 288.51Q346.32 288.51 347.87 287.83Q349.42 287.15 349.97 285.35Q350.53 283.55 350.53 279.96L350.53 255.78Q350.53 251.68 349.6 249.89Q348.67 248.09 346.44 248.09Q344.33 248.09 339.87 249.82L339.74 249.82Q339.25 249.82 339.06 249.27Q338.88 248.71 339.25 248.46L354.5 241.14Q354.75 241.02 355.24 241.02Q356.48 241.02 357.72 243.75Q358.96 246.48 359.09 251.06Q368.14 240.52 378.06 240.52Q384.88 240.52 388.66 244.55Q392.44 248.58 392.44 255.78L392.44 279.96Q392.44 283.55 393 285.35Q393.56 287.15 395.11 287.83Q396.66 288.51 399.88 288.51Q400.26 288.51 400.26 289.26Q400.26 290 399.88 290Q396.91 290 395.05 289.88L388.23 289.75L381.41 289.88Q379.55 290 376.57 290ZM422.68 324.84Q414.13 324.84 409.11 321Q404.08 317.16 404.08 311.08Q404.08 302.15 416.73 293.35Q412.27 292.6 409.79 290.62Q407.31 288.64 407.31 284.79Q407.31 281.07 409.54 277.91Q411.77 274.75 416.24 271.52Q411.77 269.42 409.29 265.51Q406.81 261.6 406.81 257.14Q406.81 250.07 412.7 245.67Q418.59 241.27 427.27 241.27Q435.08 241.27 440.17 245.11Q446.99 241.02 453.56 241.02Q453.93 241.02 454.12 241.95Q454.3 242.88 454.3 244Q454.3 245.48 453.87 247.22Q453.44 248.96 453.06 248.71Q448.23 246.72 444.51 246.72Q443.02 246.72 442.15 246.85Q446.12 251.19 446.12 257.02Q446.12 261.6 443.45 265.32Q440.79 269.04 436.14 271.28Q431.49 273.51 425.91 273.51Q421.69 273.51 418.1 272.27Q416.11 274 415.24 275.68Q414.38 277.35 414.38 279.46Q414.38 283.68 418.16 285.04Q421.94 286.4 431.61 286.4Q438.43 286.53 442.71 287.15Q446.99 287.77 450.34 290.56Q453.68 293.35 453.68 299.3Q453.68 306 449.34 311.89Q445 317.78 437.87 321.31Q430.74 324.84 422.68 324.84ZM428.51 271.52Q432.23 271.52 434.59 268.67Q436.94 265.82 436.94 259.99Q436.94 252.3 433.1 247.78Q429.26 243.25 423.92 243.25Q420.08 243.25 417.97 245.92Q415.86 248.58 415.86 254.04Q415.86 259.37 417.72 263.34Q419.58 267.31 422.5 269.42Q425.41 271.52 428.51 271.52ZM412.39 306.12Q412.39 313.06 416.79 317.03Q421.2 321 428.64 321Q436.45 321 441.35 316.66Q446.24 312.32 446.24 305Q446.24 299.92 443.89 297.56Q441.53 295.21 437.63 294.59Q433.72 293.97 426.78 293.97L419.71 293.72Q416.11 296.08 414.25 298.99Q412.39 301.9 412.39 306.12ZM550.5 222.79Q550.5 219.07 549.75 217.27Q549.01 215.48 546.78 214.73Q544.54 213.99 539.83 213.99Q539.46 213.99 539.46 213.24Q539.46 212.5 539.83 212.5L545.66 212.62Q551.36 212.87 555.46 212.87Q558.93 212.87 564.38 212.62L570.71 212.5Q571.08 212.5 571.08 213.24Q571.08 213.99 570.71 213.99Q566.12 213.99 563.95 214.67Q561.78 215.35 561.04 217.09Q560.29 218.82 560.29 222.54L560.29 279.96Q560.29 283.68 561.04 285.47Q561.78 287.27 563.95 287.89Q566.12 288.51 570.71 288.51Q571.08 288.51 571.08 289.26Q571.08 290 570.71 290L555.46 289.75L545.66 289.88Q543.55 290 539.83 290Q539.46 290 539.46 289.26Q539.46 288.51 539.83 288.51Q544.67 288.51 546.84 287.89Q549.01 287.27 549.75 285.54Q550.5 283.8 550.5 279.96L550.5 251.06L505.24 251.06L505.24 279.96Q505.24 283.68 506.04 285.47Q506.85 287.27 509.02 287.89Q511.19 288.51 516.02 288.51Q516.27 288.51 516.27 289.26Q516.27 290 516.02 290Q511.93 290 509.7 289.88L500.15 289.75L484.9 290Q484.65 290 484.65 289.26Q484.65 288.51 484.9 288.51Q489.49 288.51 491.66 287.89Q493.83 287.27 494.63 285.47Q495.44 283.68 495.44 279.96L495.44 222.54Q495.44 218.82 494.7 217.09Q493.95 215.35 491.84 214.67Q489.74 213.99 485.15 213.99Q484.78 213.99 484.78 213.24Q484.78 212.5 485.15 212.5L491.47 212.62Q496.68 212.87 500.15 212.87Q504 212.87 509.7 212.62L516.02 212.5Q516.27 212.5 516.27 213.24Q516.27 213.99 516.02 213.99Q511.31 213.99 509.08 214.73Q506.85 215.48 506.04 217.27Q505.24 219.07 505.24 222.79L505.24 248.21L550.5 248.21L550.5 222.79ZM596.11 291.12Q589.79 291.12 586.13 287.09Q582.47 283.06 582.47 275.86L582.47 257.02Q582.47 252.43 581.6 250.32Q580.74 248.21 578.75 248.21Q577.39 248.21 574.91 249.33L574.66 249.33Q574.16 249.33 574.04 248.71Q573.92 248.09 574.29 247.96L588.92 241.14L589.42 241.02Q589.79 241.02 590.35 241.39Q590.9 241.76 590.9 242.26L590.9 271.15Q590.9 278.34 593.45 281.75Q595.99 285.16 601.2 285.16Q604.79 285.16 608.51 283.43Q612.23 281.69 615.21 278.59L615.21 257.02Q615.21 252.43 614.34 250.32Q613.47 248.21 611.49 248.21Q610 248.21 607.52 249.33L607.4 249.33Q607.02 249.33 606.84 248.71Q606.65 248.09 607.02 247.96L621.66 241.14L622.15 241.02Q622.65 241.02 623.14 241.39Q623.64 241.76 623.64 242.26L623.64 276.36Q623.64 280.58 624.57 282.44Q625.5 284.3 627.73 284.3Q629.22 284.3 633.81 282.56L633.93 282.56Q634.43 282.56 634.68 283.12Q634.92 283.68 634.55 283.92L619.18 291.24L618.68 291.36Q617.44 291.36 616.32 288.45Q615.21 285.54 615.21 280.82Q606.16 291.12 596.11 291.12ZM638.88 290Q638.5 290 638.5 289.26Q638.5 288.51 638.88 288.51Q643.46 288.51 644.89 286.84Q646.32 285.16 646.32 279.96L646.32 257.02Q646.32 252.68 645.45 250.75Q644.58 248.83 642.35 248.83Q640.24 248.83 637.02 250.44L636.89 250.44Q636.4 250.44 636.21 249.82Q636.02 249.2 636.4 248.96L653.26 241.14L653.76 241.02Q654.13 241.02 654.56 241.39Q655 241.76 655 242.26Q655 244 654.87 247.72Q654.75 251.44 654.75 256.89L654.75 279.96Q654.75 285.16 656.17 286.84Q657.6 288.51 662.19 288.51Q662.56 288.51 662.56 289.26Q662.56 290 662.19 290Q659.21 290 657.35 289.88L650.53 289.75L643.71 289.88Q641.85 290 638.88 290ZM649.79 227.13Q646.94 227.13 645.26 225.58Q643.59 224.03 643.59 221.18Q643.59 218.45 645.26 216.96Q646.94 215.48 649.79 215.48Q652.52 215.48 654.07 216.96Q655.62 218.45 655.62 221.18Q655.62 224.03 654.13 225.58Q652.64 227.13 649.79 227.13ZM716.1 279.46Q716.1 283.43 717.09 285.23Q718.08 287.02 720.87 287.77Q723.66 288.51 729.86 288.51Q730.23 288.51 730.23 289.26Q730.23 290 729.86 290Q724.78 290 721.92 289.88L711.14 289.75L696.26 290Q695.88 290 695.88 289.26Q695.88 288.51 696.26 288.51Q700.72 288.51 702.7 287.89Q704.69 287.27 705.43 285.47Q706.18 283.68 706.18 279.96L706.18 222.54Q706.18 218.82 705.43 217.09Q704.69 215.35 702.64 214.67Q700.6 213.99 696.26 213.99Q695.88 213.99 695.88 213.24Q695.88 212.5 696.26 212.5L702.46 212.62Q707.91 212.87 711.01 212.87Q713.99 212.87 718.08 212.5Q720.56 212.38 723.1 212.25Q725.64 212.13 728.25 212.13Q739.9 212.13 746.97 217.21Q754.04 222.3 754.04 232.84Q754.04 240.77 750.01 246.35Q745.98 251.93 739.66 254.72Q733.33 257.51 726.76 257.51Q723.16 257.51 720.81 256.89Q720.44 256.89 720.44 256.27Q720.44 255.9 720.62 255.53Q720.81 255.16 721.06 255.28Q723.04 255.78 725.4 255.78Q732.84 255.78 737.92 250.44Q743 245.11 743 235.07Q743 225.27 738.04 219.75Q733.08 214.24 724.9 214.24Q721.06 214.24 719.32 214.79Q717.58 215.35 716.84 217.15Q716.1 218.95 716.1 222.79L716.1 279.46ZM838.22 288.51Q838.84 288.51 838.84 289.26Q838.84 290 838.22 290Q835.86 290 830.9 289.75Q825.7 289.5 823.46 289.5Q820.61 289.5 816.4 289.75Q812.18 290 810.07 290Q809.58 290 809.58 289.26Q809.58 288.51 810.07 288.51Q814.29 288.51 816.15 287.71Q818.01 286.9 818.01 284.79Q818.01 282.68 816.15 278.96L805.86 257.64L776.22 257.64L769.28 273.63Q767.54 277.72 767.54 280.45Q767.54 288.51 779.57 288.51Q780.19 288.51 780.19 289.26Q780.19 290 779.57 290Q777.34 290 773.12 289.75Q768.41 289.5 764.94 289.5Q761.71 289.5 757.25 289.75Q753.28 290 750.8 290Q750.3 290 750.3 289.26Q750.3 288.51 750.8 288.51Q754.27 288.51 756.69 287.15Q759.11 285.78 761.34 282.44Q763.57 279.09 766.42 272.52L792.84 211.63Q792.96 211.26 793.7 211.26Q794.45 211.26 794.57 211.63L824.33 273.01Q828.67 282.06 831.59 285.29Q834.5 288.51 838.22 288.51ZM777.34 254.91L804.62 254.91L790.23 225.02L777.34 254.91ZM851.6 275.86L851.6 219.44Q848.62 216.47 846.08 215.23Q843.54 213.99 840.81 213.99Q840.56 213.99 840.56 213.24Q840.56 212.5 840.81 212.5L849.86 212.75L856.18 212.62Q857.67 212.5 859.04 212.5Q860.03 212.5 860.46 212.93Q860.9 213.37 862.01 214.86Q863.5 217.09 864.99 218.95L911.24 274.75L911.24 226.76Q911.24 220.31 908.88 217.15Q906.53 213.99 901.57 213.99Q901.32 213.99 901.32 213.24Q901.32 212.5 901.57 212.5L906.53 212.62Q910.25 212.87 912.85 212.87Q915.08 212.87 919.3 212.62L924.51 212.5Q924.76 212.5 924.76 213.24Q924.76 213.99 924.51 213.99Q914.34 213.99 914.34 226.76L914.34 291.61Q914.34 291.86 913.78 291.98Q913.22 292.11 912.98 291.86L854.82 222.92L854.82 275.86Q854.82 282.31 857.24 285.41Q859.66 288.51 864.62 288.51Q864.86 288.51 864.86 289.26Q864.86 290 864.62 290Q861.39 290 859.66 289.88L853.33 289.75L841.18 290Q840.93 290 840.93 289.26Q840.93 288.51 841.18 288.51Q846.51 288.51 849.05 285.41Q851.6 282.31 851.6 275.86ZM976.08 291.49Q962.31 291.49 952.08 286.09Q941.85 280.7 936.46 271.46Q931.06 262.22 931.06 251.06Q931.06 239.16 937.2 230.11Q943.34 221.06 954.07 216.1Q964.79 211.14 978.18 211.14Q984.63 211.14 990.4 212.25Q996.16 213.37 1000.01 215.48Q1001 215.97 1001.19 216.34Q1001.37 216.72 1001.5 218.33L1003.11 233.7Q1003.11 234.08 1002.43 234.2Q1001.74 234.32 1001.62 233.83Q999.02 225.15 992.38 219.26Q985.75 213.37 975.08 213.37Q965.78 213.37 958.34 217.71Q950.9 222.05 946.63 230.17Q942.35 238.29 942.35 249.08Q942.35 259.99 946.69 269.23Q951.03 278.47 959.4 284.05Q967.77 289.63 979.3 289.63Q987.73 289.63 991.08 286.34Q994.43 283.06 994.43 274.5Q994.43 268.05 993.62 265.51Q992.82 262.97 990.15 262.1Q987.48 261.23 980.79 261.23Q980.04 261.23 980.04 260.24Q980.04 259.87 980.23 259.56Q980.42 259.25 980.66 259.25Q990.58 259.87 996.78 259.87Q1002.61 259.87 1009.31 259.5Q1009.56 259.5 1009.74 259.81Q1009.93 260.12 1009.93 260.36Q1009.93 261.23 1009.31 261.23Q1006.46 261.11 1005.34 262.04Q1004.22 262.97 1003.91 265.82Q1003.6 268.67 1003.6 275.74Q1003.6 279.34 1003.79 281.44Q1003.98 283.55 1004.22 284.79Q1004.47 286.03 1004.47 286.65Q1004.47 287.4 1004.22 287.64Q1003.98 287.89 1003.11 288.14Q987.73 291.49 976.08 291.49Z" fill="#1E4B8C"/>
<path d="M586.3 333.04L583.48 331.48C580.06 336.64 575.47 339.67 570.1 341.86L570.34 342.4C576.28 340.66 581.2 337.96 585.1 333.28C585.79 333.43 586.06 333.34 586.3 333.04ZM585.46 324.43L582.67 322.9C580.3 326.83 577.03 330.07 573.34 332.44L573.67 332.95C577.87 331 581.59 328.15 584.32 324.7C585.01 324.82 585.28 324.73 585.46 324.43ZM584.47 316.63L581.71 315.07C579.7 318.61 576.88 322 573.76 324.43L574.12 324.91C577.66 322.87 581.02 319.93 583.36 316.9C584.02 317.02 584.29 316.93 584.47 316.63ZM562.45 333.16L562.06 333.34C562.69 334.48 563.35 336.31 563.35 337.78C564.94 339.34 566.98 335.98 562.45 333.16ZM571.93 333.61L568.99 332.95C568.6 334.54 567.97 336.76 567.4 338.35C563.59 339.01 560.41 339.55 558.7 339.73L559.93 342.34C560.2 342.25 560.47 342.01 560.62 341.62C566.86 339.97 571.39 338.62 574.72 337.57L574.66 337.06L568.27 338.2C569.2 336.94 570.19 335.41 570.82 334.24C571.45 334.24 571.81 333.97 571.93 333.61ZM570.79 330.85L562.33 330.85L562.33 327.01L570.79 327.01ZM560.47 325.15L560.47 333.1L560.74 333.1C561.7 333.1 562.33 332.62 562.33 332.47L562.33 331.75L570.79 331.75L570.79 332.68L571.09 332.68C571.72 332.68 572.65 332.23 572.68 332.05L572.68 327.37C573.25 327.25 573.76 327.01 573.97 326.77L571.57 324.94L570.49 326.11L562.69 326.11ZM572.74 316.66L571.42 318.37L567.46 318.37L567.46 316C568.21 315.88 568.51 315.61 568.57 315.19L565.54 314.86L565.54 318.37L558.76 318.37L559 319.24L565.54 319.24L565.54 322.54L559.9 322.54L560.14 323.44L573.28 323.44C573.7 323.44 574 323.29 574.09 322.96C573.13 322.06 571.6 320.89 571.6 320.89L570.25 322.54L567.46 322.54L567.46 319.24L574.45 319.24C574.87 319.24 575.2 319.09 575.26 318.76C574.3 317.86 572.74 316.66 572.74 316.66ZM631.21 314.74L630.91 314.98C631.87 315.73 633.1 317.11 633.55 318.13C635.53 319.24 636.88 315.49 631.21 314.74ZM627.4 319.63L627.07 319.84C627.97 320.77 629.08 322.33 629.35 323.56C631.18 324.91 632.89 321.25 627.4 319.63ZM642.97 316.72L641.53 318.49L622.54 318.49L622.81 319.39L644.8 319.39C645.22 319.39 645.52 319.24 645.61 318.91C644.59 317.98 642.97 316.72 642.97 316.72ZM632.41 333.04L627.01 333.04L627.01 328.36L640.48 328.36L640.48 333.04ZM625.12 326.5L625.12 335.35L625.42 335.35C626.41 335.35 627.01 334.93 627.01 334.75L627.01 333.94L630.19 333.94C629.17 338.26 626.32 340.42 620.29 341.95L620.44 342.43C627.37 341.32 630.97 339.1 632.23 333.94L635.59 333.94L635.59 339.73C635.59 341.17 636.04 341.59 638.47 341.59L641.92 341.59C646.87 341.59 647.74 341.26 647.74 340.36C647.74 339.97 647.56 339.76 646.93 339.58L646.84 336.79L646.45 336.79C646.12 338.05 645.85 339.13 645.61 339.52C645.49 339.7 645.34 339.79 645.01 339.79C644.56 339.85 643.39 339.85 641.98 339.85L638.77 339.85C637.6 339.85 637.48 339.73 637.48 339.34L637.48 333.94L640.48 333.94L640.48 334.87L640.81 334.87C641.74 334.87 642.43 334.42 642.43 334.33L642.43 328.45C643.03 328.36 643.33 328.21 643.51 327.97L641.38 326.32L640.39 327.46L627.34 327.46ZM645.1 322.12L643.63 324.01L637.45 324.01C638.56 323.05 639.67 321.91 640.39 321.01C641.02 321.04 641.41 320.8 641.53 320.5L638.44 319.48C638.02 320.83 637.24 322.66 636.55 324.01L620.29 324.01L620.56 324.88L647.11 324.88C647.5 324.88 647.8 324.73 647.89 324.4C646.84 323.44 645.1 322.12 645.1 322.12ZM693.91 317.92L691.21 316.9C690.94 318.64 690.16 322.06 689.5 324.28L689.92 324.43C691.06 322.48 692.29 319.93 692.89 318.46C693.52 318.49 693.85 318.16 693.91 317.92ZM682.81 317.02L682.33 317.17C683.02 319 683.77 321.79 683.68 323.89C685.24 325.54 686.92 321.67 682.81 317.02ZM706.78 321.19L705.49 322.75L700.06 322.75C700.51 321.7 700.9 320.77 701.17 319.99C701.89 320.14 702.22 319.84 702.4 319.57L699.76 318.58C699.4 319.66 698.8 321.16 698.14 322.75L693.58 322.75L693.82 323.65L697.75 323.65C696.91 325.6 695.98 327.61 695.23 329.05C694.72 329.17 694.15 329.41 693.76 329.59L695.74 331.36L696.79 330.4L700.75 330.4L700.75 334.24L693.22 334.24L693.46 335.11L700.75 335.11L700.75 342.34L701.08 342.34C701.8 342.34 702.55 341.92 702.55 341.68L702.55 335.11L708.91 335.11C709.33 335.11 709.63 334.96 709.69 334.63C708.76 333.76 707.26 332.59 707.26 332.59L705.97 334.24L702.55 334.24L702.55 330.4L707.86 330.4C708.28 330.4 708.52 330.25 708.61 329.92C707.77 329.08 706.33 328 706.33 328L705.07 329.53L702.55 329.53L702.55 326.44C703.3 326.32 703.57 326.05 703.66 325.63L700.75 325.3L700.75 329.53L696.88 329.53C697.72 327.85 698.74 325.66 699.64 323.65L708.4 323.65C708.79 323.65 709.06 323.5 709.15 323.17C708.25 322.3 706.78 321.19 706.78 321.19ZM695.74 315.46L695.29 315.43C695.17 317.2 694.57 318.52 693.73 319.12C692.29 321.13 696.25 322.18 696.04 317.56L706.6 317.56C706.36 318.46 706 319.57 705.76 320.2L706.18 320.41C706.96 319.81 708.16 318.61 708.79 317.83C709.36 317.8 709.72 317.77 709.93 317.59L707.74 315.46L706.54 316.66L695.95 316.66ZM689.59 315.25L686.83 314.95L686.83 325.81L681.7 325.81L681.94 326.71L684.67 326.71C684.64 331.96 684.55 337.54 681.94 341.92L682.45 342.4C686.05 338.17 686.38 332.38 686.53 326.71L688.99 326.71L688.99 335.35C688.99 335.83 688.84 336.01 687.88 336.52L689.2 339.01C689.47 338.89 689.86 338.47 689.98 337.87C691.72 335.89 693.31 333.91 694.06 333.01L693.76 332.65L690.76 334.87L690.76 326.71L693.49 326.71C693.91 326.71 694.18 326.56 694.24 326.23C693.37 325.39 691.99 324.34 691.99 324.34L690.76 325.81L688.63 325.81L688.63 316C689.29 315.91 689.53 315.67 689.59 315.25Z" fill="#8B7355"/>
<line x1="540" x2="630" y1="378" y2="378" stroke="#8B7355" stroke-width="1"/>
<line x1="650" x2="740" y1="378" y2="378" stroke="#8B7355" stroke-width="1"/>
<circle cx="640" cy="378" r="3.5" fill="#D97706"/>
<path d="M508.74 404.6Q508.76 404.36 509.43 404.14Q510.1 403.92 510.52 403.92Q510.74 403.92 510.7 403.99L508.25 411.33Q508.23 411.4 508.1 411.41Q507.97 411.42 507.97 411.38L508.74 404.6ZM512.06 404.6Q512.08 404.36 512.75 404.14Q513.42 403.92 513.84 403.92Q514.06 403.92 514.02 403.99L511.58 411.33Q511.55 411.4 511.41 411.41Q511.27 411.42 511.27 411.38L512.06 404.6ZM520.24 404.54Q519.54 404.54 519.22 404.86Q518.9 405.17 518.75 406.14L518.02 410.26L518.88 410.28Q520.33 410.28 521.24 409.4Q522.16 408.52 522.42 407.15Q522.51 406.63 522.51 406.43Q522.51 405.55 521.95 405.04Q521.39 404.54 520.24 404.54ZM518.48 417.67Q520.09 417.67 521.01 416.8Q521.94 415.93 522.22 414.39Q522.31 413.97 522.31 413.49Q522.31 412.24 521.55 411.52Q520.79 410.81 519.32 410.78Q518.7 410.76 517.91 410.83L516.97 416.26Q516.9 416.59 516.9 416.81Q516.9 417.3 517.24 417.48Q517.58 417.67 518.48 417.67ZM513.49 418Q513.42 418 513.43 417.87Q513.45 417.74 513.49 417.74Q514.48 417.74 514.86 417.42Q515.25 417.1 515.43 416.17L517.23 405.99Q517.3 405.59 517.3 405.35Q517.3 404.84 517 404.68Q516.7 404.51 515.89 404.51Q515.82 404.51 515.83 404.38Q515.84 404.25 515.89 404.25L516.92 404.27Q517.76 404.32 518.24 404.32L519.5 404.25Q520.13 404.18 520.64 404.18Q522.31 404.18 523.17 404.81Q524.03 405.44 524.03 406.52Q524.03 406.8 523.96 407.18Q523.72 408.21 522.93 409.01Q522.14 409.82 520.86 410.28Q522.36 410.43 523.19 411.27Q524.03 412.1 524.03 413.38Q524.03 413.71 523.96 414.08Q523.76 415.18 523 416.1Q522.25 417.01 521.13 417.55Q520.02 418.09 518.77 418.09Q518.15 418.09 517.38 418.02L515.89 417.96L514.48 417.98Q514.13 418 513.49 418ZM527.83 418.29Q526.36 418.29 526.36 416.61Q526.36 416.22 526.51 415.38L527.31 411.47Q527.37 411.14 527.37 410.92Q527.37 410.59 527.26 410.42Q527.15 410.26 526.98 410.26Q526.56 410.26 525.61 411.2Q525.57 411.25 525.52 411.25Q525.46 411.25 525.41 411.17Q525.37 411.09 525.44 411.03Q526.21 410.12 526.78 409.72Q527.35 409.31 527.92 409.31Q528.78 409.31 528.78 410.39Q528.78 410.81 528.65 411.47L527.94 414.96Q527.81 415.62 527.81 416.11Q527.81 417.32 528.69 417.32Q529.4 417.32 530.14 416.42Q530.89 415.51 531.54 413.79Q532.19 412.06 532.61 409.71Q532.65 409.53 532.87 409.43Q533.09 409.33 533.49 409.33Q534.06 409.33 534.06 409.49L533.97 409.93Q533.77 410.87 533.73 411.14L532.83 416.04Q532.76 416.37 532.76 416.61Q532.76 417.27 533.18 417.27Q533.44 417.27 533.82 417.02Q534.19 416.77 534.63 416.31Q534.65 416.28 534.7 416.28Q534.76 416.28 534.81 416.36Q534.85 416.44 534.81 416.48Q534.04 417.36 533.42 417.78Q532.81 418.2 532.21 418.2Q531.77 418.2 531.57 417.96Q531.38 417.71 531.38 417.19Q531.38 416.86 531.49 416.15L531.93 413.64Q531.13 415.84 530.08 417.07Q529.02 418.29 527.83 418.29ZM537.65 418.2Q536.79 418.2 536.79 417.12Q536.79 416.7 536.92 416.04L537.82 411.47Q537.89 411.14 537.89 410.92Q537.89 410.23 537.45 410.23Q537.21 410.23 536.82 410.49Q536.44 410.74 536.02 411.2Q536 411.22 535.95 411.25Q535.86 411.25 535.83 411.16Q535.8 411.07 535.84 411.03Q536.61 410.15 537.24 409.73Q537.87 409.31 538.42 409.31Q538.86 409.31 539.06 409.55Q539.27 409.79 539.27 410.34Q539.27 410.85 539.16 411.36L538.26 416.04Q538.2 416.39 538.2 416.64Q538.2 417.25 538.59 417.25Q539.1 417.25 539.98 416.33Q540.02 416.28 540.07 416.28Q540.13 416.28 540.18 416.36Q540.22 416.44 540.15 416.5Q539.43 417.36 538.82 417.78Q538.22 418.2 537.65 418.2ZM539.05 406.8Q538.57 406.8 538.29 406.53Q538.02 406.25 538.02 405.77Q538.02 405.31 538.29 405.04Q538.57 404.78 539.05 404.78Q539.54 404.78 539.81 405.04Q540.09 405.31 540.09 405.77Q540.09 406.25 539.82 406.53Q539.56 406.8 539.05 406.8ZM542.73 418.2Q542.27 418.2 542.06 417.95Q541.85 417.69 541.85 417.14Q541.85 416.7 541.98 416.04L544.11 404.58Q544.16 404.38 544.16 404.05Q544.16 403.46 543.72 403.46Q543.37 403.46 542.71 403.79L542.66 403.79Q542.57 403.79 542.54 403.68Q542.51 403.57 542.6 403.52L545.61 402.05L545.65 402.05Q545.74 402.05 545.82 402.12Q545.9 402.18 545.87 402.23L543.34 416.04Q543.28 416.39 543.28 416.64Q543.28 417.25 543.67 417.25Q544.09 417.25 545.04 416.31Q545.08 416.26 545.13 416.26Q545.19 416.26 545.24 416.34Q545.28 416.42 545.21 416.48Q544.44 417.36 543.87 417.78Q543.3 418.2 542.73 418.2ZM548.32 418.29Q547.52 418.29 547 417.77Q546.47 417.25 546.47 416.15Q546.47 415.67 546.56 415.23Q546.84 413.67 547.77 412.28Q548.69 410.89 549.97 410.06Q551.24 409.22 552.47 409.22Q553.05 409.22 553.49 409.46L554.39 404.58Q554.43 404.38 554.43 404.05Q554.43 403.46 553.97 403.46Q553.64 403.46 552.94 403.79L552.91 403.79Q552.85 403.79 552.8 403.67Q552.76 403.55 552.85 403.52L555.88 402.05L555.93 402.05Q556.02 402.05 556.08 402.12Q556.15 402.18 556.13 402.23L553.6 416.04Q553.53 416.39 553.53 416.64Q553.53 417.25 553.93 417.25Q554.34 417.25 555.29 416.31L555.38 416.26Q555.44 416.26 555.49 416.34Q555.53 416.42 555.47 416.48Q554.7 417.36 554.12 417.78Q553.55 418.2 552.98 418.2Q552.54 418.2 552.33 417.96Q552.12 417.71 552.12 417.16Q552.12 416.7 552.25 416.04L552.63 414.08Q551.66 416.04 550.56 417.16Q549.46 418.29 548.32 418.29ZM549.15 417.08Q550.1 417.08 550.99 416.05Q551.88 415.03 552.46 413.68Q553.05 412.32 553.05 411.53Q553.05 410.85 552.65 410.48Q552.25 410.1 551.59 410.1Q550.27 410.1 549.29 411.18Q548.32 412.26 547.99 414.24Q547.9 414.74 547.9 415.25Q547.9 416.15 548.23 416.61Q548.56 417.08 549.15 417.08ZM558.17 418.2Q557.31 418.2 557.31 417.12Q557.31 416.7 557.45 416.04L558.35 411.47Q558.41 411.14 558.41 410.92Q558.41 410.23 557.97 410.23Q557.73 410.23 557.35 410.49Q556.96 410.74 556.54 411.2Q556.52 411.22 556.48 411.25Q556.39 411.25 556.36 411.16Q556.32 411.07 556.37 411.03Q557.14 410.15 557.76 409.73Q558.39 409.31 558.94 409.31Q559.38 409.31 559.59 409.55Q559.8 409.79 559.8 410.34Q559.8 410.85 559.69 411.36L558.79 416.04Q558.72 416.39 558.72 416.64Q558.72 417.25 559.12 417.25Q559.62 417.25 560.5 416.33Q560.55 416.28 560.59 416.28Q560.66 416.28 560.7 416.36Q560.75 416.44 560.68 416.5Q559.95 417.36 559.35 417.78Q558.74 418.2 558.17 418.2ZM559.58 406.8Q559.1 406.8 558.82 406.53Q558.55 406.25 558.55 405.77Q558.55 405.31 558.82 405.04Q559.1 404.78 559.58 404.78Q560.06 404.78 560.34 405.04Q560.61 405.31 560.61 405.77Q560.61 406.25 560.35 406.53Q560.09 406.8 559.58 406.8ZM568.64 418.2Q568.2 418.2 568.01 417.95Q567.81 417.69 567.81 417.12Q567.81 416.75 567.92 416.04L568.56 412.54Q568.69 411.88 568.69 411.42Q568.69 410.19 567.83 410.19Q567.13 410.19 566.38 411.09Q565.63 411.99 564.97 413.71Q564.31 415.43 563.89 417.74L563.89 417.8Q563.85 417.98 563.63 418.08Q563.41 418.18 563.03 418.18Q562.44 418.18 562.44 418.02L562.53 417.58Q562.73 416.64 562.77 416.37L563.67 411.47Q563.74 411.14 563.74 410.89Q563.74 410.23 563.32 410.23Q563.08 410.23 562.69 410.48Q562.31 410.72 561.87 411.2Q561.85 411.22 561.8 411.22Q561.74 411.22 561.69 411.15Q561.65 411.07 561.69 411.03Q562.44 410.15 563.08 409.73Q563.72 409.31 564.31 409.31Q564.75 409.31 564.95 409.56Q565.15 409.82 565.15 410.37Q565.15 410.7 565.04 411.36L564.6 413.78Q565.39 411.62 566.44 410.42Q567.5 409.22 568.67 409.22Q569.39 409.22 569.75 409.64Q570.12 410.06 570.12 410.92Q570.12 411.42 569.99 412.13L569.26 416.04Q569.19 416.37 569.19 416.59Q569.19 417.25 569.61 417.25Q570.03 417.25 570.98 416.31Q571 416.28 571.04 416.28Q571.11 416.28 571.15 416.36Q571.2 416.44 571.15 416.48Q570.38 417.36 569.81 417.78Q569.24 418.2 568.64 418.2ZM573.77 424.18Q572.21 424.18 571.31 423.56Q570.4 422.93 570.4 421.98Q570.4 421.85 570.45 421.59Q570.62 420.75 571.39 420.1Q572.16 419.45 573.53 418.68Q572.58 418.04 572.74 417.25Q572.82 416.86 573.11 416.5Q573.4 416.15 573.9 415.71Q573.2 415.47 572.82 414.85Q572.45 414.24 572.45 413.4Q572.45 412.96 572.54 412.59Q572.8 411.2 573.87 410.29Q574.94 409.38 576.28 409.38Q577.18 409.38 577.77 409.86Q578.9 409.33 579.91 409.33Q580.02 409.33 580.02 409.62Q580.02 409.93 579.92 410.25Q579.82 410.56 579.73 410.52Q579.03 410.1 578.08 410.17Q578.54 410.78 578.54 411.73Q578.54 412.21 578.46 412.59Q578.26 413.56 577.69 414.29Q577.11 415.03 576.33 415.44Q575.55 415.84 574.74 415.84Q574.54 415.84 574.23 415.8Q573.97 416.13 573.97 416.55Q573.97 417.05 574.44 417.42Q574.91 417.78 575.9 418.29Q577.16 418.9 577.82 419.46Q578.48 420.02 578.48 420.93Q578.48 421.81 577.83 422.55Q577.18 423.3 576.1 423.74Q575.02 424.18 573.77 424.18ZM575.29 415.4Q575.9 415.4 576.4 414.77Q576.89 414.13 577.05 413.07Q577.09 412.83 577.09 412.3Q577.09 411.27 576.76 410.53Q576.43 409.79 575.75 409.79Q575.13 409.79 574.63 410.47Q574.12 411.14 573.97 412.15Q573.9 412.57 573.9 412.98Q573.9 414.02 574.28 414.71Q574.65 415.4 575.29 415.4ZM571.88 421.37Q571.88 422.33 572.7 422.94Q573.53 423.54 574.85 423.54Q575.97 423.54 576.57 423.04Q577.18 422.53 577.18 421.78Q577.18 420.97 576.55 420.45Q575.93 419.94 574.74 419.34Q574.14 419.06 573.77 418.84Q572.89 419.39 572.38 419.96Q571.88 420.53 571.88 421.37ZM587.65 418.26Q586.09 418.26 586.09 416.81Q586.09 416.46 586.13 416.24L587.04 411.27Q587.12 410.89 587.12 410.59Q587.12 410.28 586.95 410.18Q586.77 410.08 586.29 410.08Q586.22 410.08 586.22 409.97Q586.22 409.9 586.25 409.84Q586.29 409.77 586.31 409.77Q587.12 409.77 587.73 409.27Q588.33 408.76 588.6 408.01Q588.6 407.95 588.75 407.95Q588.84 407.95 588.92 407.98Q588.99 408.01 588.97 408.03L588.66 409.73L590.58 409.62Q591.17 409.55 591.44 409.55Q591.5 409.55 591.55 409.61Q591.59 409.66 591.59 409.73Q591.59 409.93 591.35 410.22Q591.11 410.52 590.86 410.52Q590.6 410.5 589.91 410.4Q589.21 410.3 588.58 410.28L587.61 415.67Q587.54 416.02 587.54 416.28Q587.54 416.83 587.81 417.08Q588.07 417.32 588.64 417.32Q589.19 417.32 589.66 417.09Q590.14 416.86 590.69 416.39L590.71 416.39Q590.78 416.39 590.84 416.46Q590.91 416.53 590.86 416.57Q589.85 417.47 589.1 417.87Q588.36 418.26 587.65 418.26ZM592.84 418.18Q592.25 418.18 592.25 418.02L592.34 417.58Q592.54 416.64 592.58 416.37L594.78 404.58Q594.85 404.27 594.85 404.05Q594.85 403.46 594.38 403.46Q594.05 403.46 593.35 403.79L593.31 403.79Q593.22 403.79 593.2 403.68Q593.17 403.57 593.24 403.52L596.25 402.05L596.3 402.05Q596.39 402.05 596.46 402.12Q596.54 402.18 596.52 402.23L594.43 413.73Q595.22 411.6 596.26 410.41Q597.31 409.22 598.48 409.22Q599.2 409.22 599.55 409.63Q599.91 410.04 599.91 410.92Q599.91 411.55 599.8 412.13L599.07 416.04Q599 416.37 599 416.61Q599 417.25 599.4 417.25Q599.84 417.25 600.79 416.31Q600.81 416.28 600.85 416.28Q600.92 416.28 600.97 416.35Q601.03 416.42 600.96 416.48Q600.19 417.36 599.62 417.78Q599.05 418.2 598.45 418.2Q598.01 418.2 597.82 417.95Q597.62 417.69 597.62 417.12Q597.62 416.75 597.73 416.04L598.37 412.54Q598.5 411.88 598.5 411.4Q598.5 410.19 597.64 410.19Q596.96 410.19 596.22 411.06Q595.48 411.93 594.82 413.6Q594.16 415.27 593.75 417.56L593.7 417.8Q593.66 417.98 593.44 418.08Q593.22 418.18 592.84 418.18ZM603.71 418.2Q602.85 418.2 602.85 417.12Q602.85 416.7 602.99 416.04L603.89 411.47Q603.95 411.14 603.95 410.92Q603.95 410.23 603.51 410.23Q603.27 410.23 602.89 410.49Q602.5 410.74 602.08 411.2Q602.06 411.22 602.02 411.25Q601.93 411.25 601.9 411.16Q601.86 411.07 601.91 411.03Q602.68 410.15 603.3 409.73Q603.93 409.31 604.48 409.31Q604.92 409.31 605.13 409.55Q605.34 409.79 605.34 410.34Q605.34 410.85 605.23 411.36L604.33 416.04Q604.26 416.39 604.26 416.64Q604.26 417.25 604.66 417.25Q605.16 417.25 606.04 416.33Q606.09 416.28 606.13 416.28Q606.2 416.28 606.24 416.36Q606.29 416.44 606.22 416.5Q605.49 417.36 604.89 417.78Q604.28 418.2 603.71 418.2ZM605.12 406.8Q604.64 406.8 604.36 406.53Q604.09 406.25 604.09 405.77Q604.09 405.31 604.36 405.04Q604.64 404.78 605.12 404.78Q605.6 404.78 605.88 405.04Q606.15 405.31 606.15 405.77Q606.15 406.25 605.89 406.53Q605.63 406.8 605.12 406.8ZM614.18 418.2Q613.74 418.2 613.55 417.95Q613.35 417.69 613.35 417.12Q613.35 416.75 613.46 416.04L614.1 412.54Q614.23 411.88 614.23 411.42Q614.23 410.19 613.37 410.19Q612.67 410.19 611.92 411.09Q611.17 411.99 610.51 413.71Q609.85 415.43 609.43 417.74L609.43 417.8Q609.39 417.98 609.17 418.08Q608.95 418.18 608.57 418.18Q607.98 418.18 607.98 418.02L608.07 417.58Q608.27 416.64 608.31 416.37L609.21 411.47Q609.28 411.14 609.28 410.89Q609.28 410.23 608.86 410.23Q608.62 410.23 608.23 410.48Q607.85 410.72 607.41 411.2Q607.39 411.22 607.34 411.22Q607.28 411.22 607.23 411.15Q607.19 411.07 607.23 411.03Q607.98 410.15 608.62 409.73Q609.26 409.31 609.85 409.31Q610.29 409.31 610.49 409.56Q610.69 409.82 610.69 410.37Q610.69 410.7 610.58 411.36L610.14 413.78Q610.93 411.62 611.98 410.42Q613.04 409.22 614.21 409.22Q614.93 409.22 615.29 409.64Q615.66 410.06 615.66 410.92Q615.66 411.42 615.53 412.13L614.8 416.04Q614.73 416.37 614.73 416.59Q614.73 417.25 615.15 417.25Q615.57 417.25 616.52 416.31Q616.54 416.28 616.58 416.28Q616.65 416.28 616.69 416.36Q616.74 416.44 616.69 416.48Q615.92 417.36 615.35 417.78Q614.78 418.2 614.18 418.2ZM619.31 424.18Q617.75 424.18 616.85 423.56Q615.94 422.93 615.94 421.98Q615.94 421.85 615.99 421.59Q616.16 420.75 616.93 420.1Q617.7 419.45 619.07 418.68Q618.12 418.04 618.28 417.25Q618.36 416.86 618.65 416.5Q618.94 416.15 619.44 415.71Q618.74 415.47 618.36 414.85Q617.99 414.24 617.99 413.4Q617.99 412.96 618.08 412.59Q618.34 411.2 619.41 410.29Q620.48 409.38 621.82 409.38Q622.72 409.38 623.31 409.86Q624.44 409.33 625.45 409.33Q625.56 409.33 625.56 409.62Q625.56 409.93 625.46 410.25Q625.36 410.56 625.27 410.52Q624.57 410.1 623.62 410.17Q624.08 410.78 624.08 411.73Q624.08 412.21 624 412.59Q623.8 413.56 623.23 414.29Q622.65 415.03 621.87 415.44Q621.09 415.84 620.28 415.84Q620.08 415.84 619.77 415.8Q619.51 416.13 619.51 416.55Q619.51 417.05 619.98 417.42Q620.45 417.78 621.44 418.29Q622.7 418.9 623.36 419.46Q624.02 420.02 624.02 420.93Q624.02 421.81 623.37 422.55Q622.72 423.3 621.64 423.74Q620.56 424.18 619.31 424.18ZM620.83 415.4Q621.44 415.4 621.94 414.77Q622.43 414.13 622.59 413.07Q622.63 412.83 622.63 412.3Q622.63 411.27 622.3 410.53Q621.97 409.79 621.29 409.79Q620.67 409.79 620.17 410.47Q619.66 411.14 619.51 412.15Q619.44 412.57 619.44 412.98Q619.44 414.02 619.82 414.71Q620.19 415.4 620.83 415.4ZM617.42 421.37Q617.42 422.33 618.24 422.94Q619.07 423.54 620.39 423.54Q621.51 423.54 622.11 423.04Q622.72 422.53 622.72 421.78Q622.72 420.97 622.09 420.45Q621.47 419.94 620.28 419.34Q619.68 419.06 619.31 418.84Q618.43 419.39 617.92 419.96Q617.42 420.53 617.42 421.37ZM627.6 418.24Q626.77 418.24 626.15 417.86Q625.54 417.47 625.54 416.92Q625.54 416.53 625.76 416.32Q625.98 416.11 626.31 416.11Q626.55 416.11 626.7 416.25Q626.86 416.39 627.08 416.75Q627.32 417.19 627.6 417.43Q627.89 417.67 628.4 417.67Q629.45 417.67 629.61 416.48Q629.63 416.39 629.63 416.2Q629.63 415.56 629.26 415.1Q628.9 414.63 628.15 414.02Q627.43 413.42 627.05 412.96Q626.68 412.5 626.68 411.86Q626.68 411.16 627.11 410.56Q627.54 409.97 628.25 409.63Q628.97 409.29 629.76 409.29Q630.62 409.29 631.17 409.62Q631.72 409.95 631.65 410.45Q631.59 410.78 631.37 410.96Q631.15 411.14 630.88 411.14Q630.55 411.14 630.38 410.98Q630.2 410.83 630 410.52Q629.78 410.17 629.55 409.99Q629.32 409.82 628.9 409.82Q628.48 409.82 628.21 410.04Q627.93 410.26 627.89 410.63Q627.87 410.72 627.87 410.92Q627.87 411.51 628.22 411.95Q628.57 412.39 629.3 413.01Q630.05 413.64 630.44 414.14Q630.84 414.63 630.84 415.32Q630.84 416 630.41 416.68Q629.98 417.36 629.24 417.8Q628.51 418.24 627.6 418.24ZM636.38 424.05Q635.63 424.05 635.22 423.79Q634.8 423.52 634.8 423.1Q634.8 422.71 635.04 422.49Q635.28 422.27 635.68 422.27Q636.07 422.27 636.23 422.47Q636.38 422.66 636.49 423.06Q636.58 423.37 636.67 423.5Q636.76 423.63 636.98 423.63Q637.24 423.63 637.4 423.29Q637.57 422.95 637.77 421.99Q637.97 421.04 638.25 419.03L639.37 411.27Q639.4 410.98 639.42 410.7Q639.42 410.3 639.18 410.19Q638.93 410.08 638.19 410.08Q638.12 410.08 638.12 409.97Q638.12 409.9 638.15 409.84Q638.19 409.77 638.21 409.77Q638.98 409.77 639.31 409.56Q639.64 409.35 639.73 408.8Q640.17 406.1 640.72 404.66Q641.27 403.22 642.09 402.62Q642.92 402.03 644.28 402.03Q645.09 402.03 645.57 402.38Q646.04 402.73 645.97 403.22Q645.91 403.57 645.67 403.76Q645.42 403.94 645.12 403.94Q644.7 403.94 644.53 403.73Q644.37 403.52 644.24 403.11Q644.1 402.73 643.98 402.57Q643.86 402.4 643.58 402.4Q642.78 402.4 642.2 403.88Q641.62 405.35 641.18 408.34L640.98 409.71Q641.64 409.68 642.45 409.6L643.18 409.55Q643.33 409.55 643.33 409.73Q643.33 409.88 643.08 410.2Q642.83 410.52 642.61 410.5Q641.53 410.34 640.89 410.28L639.7 418.46Q639.4 420.6 638.98 421.8Q638.56 422.99 637.94 423.52Q637.33 424.05 636.38 424.05ZM644.76 418.18Q644.19 418.18 644.19 418.02L644.28 417.58L644.52 416.37L645.31 412.04Q645.4 411.53 645.4 411.11Q645.4 410.23 644.92 410.23Q644.46 410.23 643.62 411.07Q643.6 411.09 643.55 411.09Q643.49 411.09 643.44 411.02Q643.4 410.94 643.44 410.89Q644.15 410.08 644.74 409.7Q645.34 409.31 645.91 409.31Q646.37 409.31 646.59 409.61Q646.81 409.9 646.81 410.59Q646.81 411.09 646.68 411.93L646.22 414.44Q646.92 412.21 647.76 410.76Q648.59 409.31 649.45 409.31Q649.89 409.31 650.31 409.65Q650.73 409.99 650.73 410.41Q650.73 410.74 650.49 410.99Q650.26 411.25 649.93 411.25Q649.69 411.25 649.54 411.15Q649.38 411.05 649.21 410.85Q649.1 410.74 648.98 410.64Q648.86 410.54 648.7 410.54Q648.26 410.54 647.62 411.79Q646.99 413.03 646.42 414.77Q645.86 416.5 645.62 417.8Q645.56 418.18 644.76 418.18ZM653.63 418.31Q652.27 418.31 651.53 417.37Q650.79 416.44 650.79 414.92Q650.79 414.41 650.9 413.75Q651.14 412.46 651.84 411.42Q652.53 410.39 653.52 409.81Q654.51 409.22 655.61 409.22Q657.02 409.22 657.78 410.15Q658.54 411.07 658.54 412.54Q658.54 413.12 658.4 413.75Q658.12 415.14 657.38 416.17Q656.64 417.21 655.65 417.76Q654.66 418.31 653.63 418.31ZM654.4 417.76Q655.26 417.76 655.93 416.94Q656.6 416.13 656.86 414.72Q657 414 657 413.29Q657 411.8 656.46 410.77Q655.92 409.75 654.93 409.75Q654.09 409.75 653.4 410.56Q652.71 411.38 652.44 412.81Q652.29 413.64 652.29 414.26Q652.29 415.73 652.85 416.75Q653.41 417.76 654.4 417.76ZM671.1 418.2Q670.66 418.2 670.46 417.95Q670.26 417.69 670.26 417.12Q670.26 416.75 670.37 416.04L671.01 412.54Q671.12 411.82 671.12 411.4Q671.12 410.19 670.35 410.19Q669.71 410.19 669.02 411.03Q668.33 411.86 667.69 413.48Q667.05 415.1 666.63 417.32L666.54 417.8Q666.52 417.96 666.29 418.07Q666.06 418.18 665.69 418.18Q665.11 418.18 665.11 418.02L665.2 417.58L665.44 416.37L666.17 412.52Q666.26 411.99 666.26 411.49Q666.26 410.19 665.49 410.19Q664.83 410.19 664.12 411.06Q663.42 411.93 662.79 413.59Q662.17 415.25 661.75 417.52L661.7 417.8Q661.59 418.18 660.82 418.18Q660.25 418.18 660.25 418.02L660.36 417.52L660.58 416.44L661.48 411.47Q661.55 411.14 661.55 410.89Q661.55 410.23 661.13 410.23Q660.89 410.23 660.5 410.48Q660.12 410.72 659.68 411.2Q659.66 411.22 659.61 411.22Q659.55 411.22 659.5 411.15Q659.46 411.07 659.5 411.03Q660.25 410.15 660.89 409.73Q661.53 409.31 662.12 409.31Q662.56 409.31 662.76 409.56Q662.96 409.82 662.96 410.37Q662.96 410.7 662.85 411.36L662.45 413.58Q663.22 411.51 664.23 410.37Q665.25 409.22 666.35 409.22Q667.71 409.22 667.71 410.92Q667.71 411.4 667.58 412.1L667.31 413.58Q668.08 411.51 669.08 410.37Q670.09 409.22 671.19 409.22Q671.87 409.22 672.2 409.63Q672.53 410.04 672.53 410.92Q672.53 411.55 672.42 412.13L671.71 416.04Q671.65 416.37 671.65 416.61Q671.65 417.25 672.04 417.25Q672.46 417.25 673.41 416.31Q673.45 416.26 673.5 416.26Q673.56 416.26 673.61 416.34Q673.65 416.42 673.58 416.48Q672.81 417.36 672.24 417.78Q671.67 418.2 671.1 418.2ZM679.15 418.15L679.13 418.15Q679.06 418.15 678.97 418.07Q678.89 417.98 678.93 417.93L684.96 411.16Q684.8 411.2 684.52 411.2Q684.06 411.2 682.71 410.92Q681.7 410.67 681.31 410.67Q680.93 410.67 680.7 410.89Q680.47 411.11 680.25 411.66Q680.23 411.71 680.16 411.71Q680.1 411.71 680.04 411.65Q679.99 411.6 680.01 411.53Q680.36 410.52 680.58 410.07Q680.8 409.62 681.04 409.48Q681.28 409.33 681.75 409.33Q682.36 409.33 683.64 409.62Q684.12 409.73 684.64 409.82Q685.16 409.9 685.53 409.93Q685.88 409.93 686.15 409.79Q686.41 409.66 686.74 409.29L686.78 409.27Q686.85 409.27 686.93 409.35Q687 409.44 686.96 409.49L680.95 416.28Q681.11 416.24 681.39 416.24Q681.94 416.24 683.51 416.53Q684.78 416.75 685.11 416.75Q685.46 416.75 685.68 416.53Q685.9 416.31 686.1 415.78Q686.1 415.76 686.17 415.76Q686.23 415.76 686.3 415.79Q686.37 415.82 686.34 415.87Q686.04 416.88 685.82 417.34Q685.6 417.8 685.36 417.96Q685.13 418.11 684.72 418.11Q684.3 418.11 683.7 418.02Q683.11 417.93 682.52 417.82Q681.15 417.54 680.36 417.52Q680.01 417.52 679.74 417.65Q679.48 417.78 679.15 418.15ZM690.15 418.26Q688.7 418.26 687.97 417.36Q687.25 416.46 687.25 415.03Q687.25 414.55 687.36 413.93Q687.58 412.79 688.31 411.7Q689.05 410.61 690.15 409.92Q691.25 409.22 692.48 409.22Q693.25 409.22 693.67 409.5Q694.09 409.77 694.09 410.23Q694.09 410.89 693.37 411.53Q692.66 412.17 691.47 412.64Q690.28 413.12 688.94 413.34Q688.83 414.04 688.83 414.5Q688.83 415.84 689.42 416.65Q690.02 417.45 691.12 417.45Q692.31 417.45 693.27 416.72Q693.32 416.7 693.39 416.79Q693.47 416.88 693.43 416.92Q691.87 418.26 690.15 418.26ZM688.98 413.03Q692.02 412.43 692.35 410.87Q692.39 410.65 692.39 410.59Q692.39 410.21 692.12 410.01Q691.84 409.82 691.45 409.82Q690.55 409.82 689.9 410.72Q689.25 411.62 688.98 413.03ZM696.07 418.18Q695.5 418.18 695.5 418.02L695.58 417.58L695.83 416.37L696.62 412.04Q696.71 411.53 696.71 411.11Q696.71 410.23 696.22 410.23Q695.76 410.23 694.92 411.07Q694.9 411.09 694.86 411.09Q694.79 411.09 694.75 411.02Q694.7 410.94 694.75 410.89Q695.45 410.08 696.05 409.7Q696.64 409.31 697.21 409.31Q697.67 409.31 697.89 409.61Q698.11 409.9 698.11 410.59Q698.11 411.09 697.98 411.93L697.52 414.44Q698.22 412.21 699.06 410.76Q699.9 409.31 700.75 409.31Q701.19 409.31 701.61 409.65Q702.03 409.99 702.03 410.41Q702.03 410.74 701.8 410.99Q701.57 411.25 701.24 411.25Q701 411.25 700.84 411.15Q700.69 411.05 700.51 410.85Q700.4 410.74 700.28 410.64Q700.16 410.54 700.01 410.54Q699.57 410.54 698.93 411.79Q698.29 413.03 697.73 414.77Q697.17 416.5 696.93 417.8Q696.86 418.18 696.07 418.18ZM704.93 418.31Q703.57 418.31 702.83 417.37Q702.1 416.44 702.1 414.92Q702.1 414.41 702.21 413.75Q702.45 412.46 703.14 411.42Q703.83 410.39 704.82 409.81Q705.81 409.22 706.91 409.22Q708.32 409.22 709.08 410.15Q709.84 411.07 709.84 412.54Q709.84 413.12 709.71 413.75Q709.42 415.14 708.68 416.17Q707.95 417.21 706.96 417.76Q705.97 418.31 704.93 418.31ZM705.7 417.76Q706.56 417.76 707.23 416.94Q707.9 416.13 708.17 414.72Q708.3 414 708.3 413.29Q708.3 411.8 707.76 410.77Q707.22 409.75 706.23 409.75Q705.4 409.75 704.7 410.56Q704.01 411.38 703.75 412.81Q703.59 413.64 703.59 414.26Q703.59 415.73 704.15 416.75Q704.71 417.76 705.7 417.76ZM718.2 418.26Q716.64 418.26 716.64 416.81Q716.64 416.46 716.68 416.24L717.58 411.27Q717.67 410.89 717.67 410.59Q717.67 410.28 717.5 410.18Q717.32 410.08 716.84 410.08Q716.77 410.08 716.77 409.97Q716.77 409.9 716.8 409.84Q716.84 409.77 716.86 409.77Q717.67 409.77 718.28 409.27Q718.88 408.76 719.15 408.01Q719.15 407.95 719.3 407.95Q719.39 407.95 719.46 407.98Q719.54 408.01 719.52 408.03L719.21 409.73L721.13 409.62Q721.72 409.55 721.98 409.55Q722.05 409.55 722.09 409.61Q722.14 409.66 722.14 409.73Q722.14 409.93 721.9 410.22Q721.65 410.52 721.41 410.52Q721.15 410.5 720.45 410.4Q719.76 410.3 719.12 410.28L718.16 415.67Q718.09 416.02 718.09 416.28Q718.09 416.83 718.35 417.08Q718.62 417.32 719.19 417.32Q719.74 417.32 720.21 417.09Q720.69 416.86 721.24 416.39L721.26 416.39Q721.32 416.39 721.39 416.46Q721.46 416.53 721.41 416.57Q720.4 417.47 719.65 417.87Q718.9 418.26 718.2 418.26ZM725.44 418.31Q724.07 418.31 723.34 417.37Q722.6 416.44 722.6 414.92Q722.6 414.41 722.71 413.75Q722.95 412.46 723.64 411.42Q724.34 410.39 725.33 409.81Q726.32 409.22 727.42 409.22Q728.83 409.22 729.58 410.15Q730.34 411.07 730.34 412.54Q730.34 413.12 730.21 413.75Q729.93 415.14 729.19 416.17Q728.45 417.21 727.46 417.76Q726.47 418.31 725.44 418.31ZM726.21 417.76Q727.07 417.76 727.74 416.94Q728.41 416.13 728.67 414.72Q728.8 414 728.8 413.29Q728.8 411.8 728.26 410.77Q727.73 409.75 726.74 409.75Q725.9 409.75 725.21 410.56Q724.51 411.38 724.25 412.81Q724.1 413.64 724.1 414.26Q724.1 415.73 724.66 416.75Q725.22 417.76 726.21 417.76ZM739.41 418.31Q738.04 418.31 737.31 417.37Q736.57 416.44 736.57 414.92Q736.57 414.41 736.68 413.75Q736.92 412.46 737.61 411.42Q738.31 410.39 739.3 409.81Q740.29 409.22 741.39 409.22Q742.8 409.22 743.55 410.15Q744.31 411.07 744.31 412.54Q744.31 413.12 744.18 413.75Q743.9 415.14 743.16 416.17Q742.42 417.21 741.43 417.76Q740.44 418.31 739.41 418.31ZM740.18 417.76Q741.04 417.76 741.71 416.94Q742.38 416.13 742.64 414.72Q742.77 414 742.77 413.29Q742.77 411.8 742.23 410.77Q741.7 409.75 740.71 409.75Q739.87 409.75 739.18 410.56Q738.48 411.38 738.22 412.81Q738.07 413.64 738.07 414.26Q738.07 415.73 738.63 416.75Q739.19 417.76 740.18 417.76ZM752.23 418.2Q751.79 418.2 751.6 417.95Q751.4 417.69 751.4 417.12Q751.4 416.75 751.51 416.04L752.15 412.54Q752.28 411.88 752.28 411.42Q752.28 410.19 751.42 410.19Q750.72 410.19 749.97 411.09Q749.22 411.99 748.56 413.71Q747.9 415.43 747.48 417.74L747.48 417.8Q747.44 417.98 747.22 418.08Q747 418.18 746.62 418.18Q746.03 418.18 746.03 418.02L746.12 417.58Q746.32 416.64 746.36 416.37L747.26 411.47Q747.33 411.14 747.33 410.89Q747.33 410.23 746.91 410.23Q746.67 410.23 746.28 410.48Q745.9 410.72 745.46 411.2Q745.44 411.22 745.39 411.22Q745.33 411.22 745.28 411.15Q745.24 411.07 745.28 411.03Q746.03 410.15 746.67 409.73Q747.31 409.31 747.9 409.31Q748.34 409.31 748.54 409.56Q748.74 409.82 748.74 410.37Q748.74 410.7 748.63 411.36L748.19 413.78Q748.98 411.62 750.03 410.42Q751.09 409.22 752.26 409.22Q752.98 409.22 753.34 409.64Q753.71 410.06 753.71 410.92Q753.71 411.42 753.58 412.13L752.85 416.04Q752.78 416.37 752.78 416.59Q752.78 417.25 753.2 417.25Q753.62 417.25 754.57 416.31Q754.59 416.28 754.63 416.28Q754.7 416.28 754.74 416.36Q754.79 416.44 754.74 416.48Q753.97 417.36 753.4 417.78Q752.83 418.2 752.23 418.2ZM758.7 418.26Q757.25 418.26 756.52 417.36Q755.8 416.46 755.8 415.03Q755.8 414.55 755.91 413.93Q756.13 412.79 756.86 411.7Q757.6 410.61 758.7 409.92Q759.8 409.22 761.03 409.22Q761.8 409.22 762.22 409.5Q762.64 409.77 762.64 410.23Q762.64 410.89 761.92 411.53Q761.21 412.17 760.02 412.64Q758.83 413.12 757.49 413.34Q757.38 414.04 757.38 414.5Q757.38 415.84 757.98 416.65Q758.57 417.45 759.67 417.45Q760.86 417.45 761.83 416.72Q761.87 416.7 761.95 416.79Q762.02 416.88 761.98 416.92Q760.42 418.26 758.7 418.26ZM757.54 413.03Q760.57 412.43 760.9 410.87Q760.95 410.65 760.95 410.59Q760.95 410.21 760.67 410.01Q760.4 409.82 760 409.82Q759.1 409.82 758.45 410.72Q757.8 411.62 757.54 413.03ZM764.44 418.22Q763.96 418.22 763.68 417.95Q763.41 417.67 763.41 417.19Q763.41 416.72 763.68 416.46Q763.96 416.2 764.44 416.2Q764.93 416.2 765.19 416.46Q765.46 416.72 765.46 417.19Q765.46 417.67 765.19 417.95Q764.93 418.22 764.44 418.22ZM769.44 404.6Q769.46 404.36 770.13 404.14Q770.8 403.92 771.22 403.92Q771.44 403.92 771.4 403.99L768.95 411.33Q768.93 411.4 768.8 411.41Q768.67 411.42 768.67 411.38L769.44 404.6ZM772.76 404.6Q772.78 404.36 773.45 404.14Q774.12 403.92 774.54 403.92Q774.76 403.92 774.72 403.99L772.28 411.33Q772.25 411.4 772.11 411.41Q771.97 411.42 771.97 411.38L772.76 404.6Z" fill="#2C2416"/>
<g transform="translate(0, 440)">
<path stroke="#8B7355" stroke-width="3" fill="none" stroke-linecap="round" opacity="0.3">
<animate attributeName="d" dur="10s" repeatCount="indefinite" values="M0,70 Q160,30 320,70 T640,70 T960,70 T1280,70;M0,70 Q160,110 320,70 T640,70 T960,70 T1280,70;M0,70 Q160,30 320,70 T640,70 T960,70 T1280,70"/>
</path>
<path stroke="#1E4B8C" stroke-width="2" fill="none" stroke-linecap="round" opacity="0.5">
<animate attributeName="d" dur="7.5s" repeatCount="indefinite" values="M0,90 Q200,60 400,90 T800,90 T1280,90;M0,90 Q200,120 400,90 T800,90 T1280,90;M0,90 Q200,60 400,90 T800,90 T1280,90"/>
</path>
<path stroke="#E8C8A0" stroke-width="1.5" fill="none" stroke-linecap="round" opacity="0.7">
<animate attributeName="d" dur="5s" repeatCount="indefinite" values="M0,110 Q180,90 360,110 T720,110 T1080,110 T1280,110;M0,110 Q180,130 360,110 T720,110 T1080,110 T1280,110;M0,110 Q180,90 360,110 T720,110 T1080,110 T1280,110"/>
</path>
</g>
<line x1="120" y1="555" x2="1160" y2="555" stroke="#8B7355" stroke-width="0.5" opacity="0.5"/>
</svg>