<svg xmlns="http://www.w3.org/2000/svg" viewBox="0 0 1280 580">
<rect fill="#FBF8F3" width="1280" height="580"/>
<line x1="120" y1="80" x2="1160" y2="80" stroke="#8B7355" stroke-width="0.5" opacity="0.5"/>
<path d="M121 57L132 57L132 56L121 56ZM149 50L151 50L148 59L146 50L147 50L143 50L144 50L148 60L152 50L153 50L149 50ZM161 60C164 60 166 58 166 55C166 52 164 50 161 50C159 50 157 52 157 55C157 58 159 60 161 60ZM161 60C159 60 158 58 158 55C158 52 159 50 161 50C163 50 164 52 164 55C164 58 163 60 161 60ZM171 50L172 50C172 52 172 53 172 55C172 57 172 58 172 59L171 60L178 60L178 57L177 57L177 60L173 60C173 58 173 57 173 56L173 55C173 53 173 52 173 50L175 50L171 50ZM184 60C185 60 185 60 185 59C185 59 185 58 184 58C184 58 183 59 183 59C183 60 184 60 184 60ZM201 60C203 60 204 59 204 55C204 51 203 50 201 50C199 50 198 51 198 55C198 59 199 60 201 60ZM201 60C200 60 199 59 199 55C199 51 200 50 201 50C202 50 203 51 203 55C203 59 202 60 201 60ZM213 60L214 60L214 57L216 57L214 57L214 50L209 57L213 57ZM210 57L212 53L213 51L213 57ZM229 56C230 56 230 55 230 55C230 54 230 54 229 54C229 54 228 54 228 55C228 55 229 56 229 56ZM243 60L249 60L249 59L244 59C245 58 245 57 246 57C248 55 249 54 249 52C249 51 248 50 246 50C244 50 243 50 243 52C244 52 244 52 244 51L245 50C245 50 245 50 246 50C247 50 248 51 248 52C248 53 247 54 245 56C245 57 244 58 243 59ZM257 60C259 60 260 59 260 55C260 51 259 50 257 50C256 50 254 51 254 55C254 59 256 60 257 60ZM257 60C256 60 255 59 255 55C255 51 256 50 257 50C258 50 259 51 259 55C259 59 258 60 257 60ZM266 60L272 60L272 59L266 59C267 58 268 57 268 57C271 55 271 54 271 52C271 51 270 50 269 50C267 50 266 50 266 52C266 52 267 52 267 51L267 50C267 50 268 50 268 50C269 50 270 51 270 52C270 53 270 54 268 56C267 57 266 58 266 59ZM280 60C282 60 283 59 283 57C283 55 282 54 280 54C279 54 279 54 278 55C278 52 280 51 283 50C279 50 277 53 277 56C277 59 278 60 280 60ZM278 55C279 55 279 54 280 54C281 54 282 55 282 57C282 59 281 60 280 60C279 60 278 58 278 56ZM295 49L295 50L301 50L301 52L297 52L296 52L296 61C297 61 297 61 297 61L297 53L301 53C301 54 300 56 297 58L298 58C300 57 301 56 301 55C302 55 304 57 304 58C305 58 305 56 301 54C302 54 302 53 302 53L306 53L306 60C306 60 306 60 305 60C305 60 303 60 303 60C304 60 304 60 305 60C305 61 305 61 305 61C306 61 307 60 307 60L307 53C307 53 307 53 307 52L306 52L305 52L302 52L302 50L307 50C308 50 308 50 308 50C307 49 306 49 306 49ZM316 48C315 50 314 53 313 54C314 53 315 52 316 51L318 51L318 55L312 55L313 55L318 55L318 61L319 61L319 55L325 55C325 55 324 54 324 54L323 55L319 55L319 51L324 51C324 50 323 50 323 50L322 51L316 51C316 50 316 49 317 49ZM337 57L348 57L348 56L337 56Z" fill="#8B7355"/>
<path d="M954 60L953 60L952 60Q951 60 951 59L952 58L952 57L952 58Q952 59 953 59Q953 60 954 60L955 60Q956 59 956 58Q956 57 955 57Q955 56 954 56Q954 55 953 55L953 54L953 53Q953 52 954 52Q955 51 956 51L957 51L957 52L957 53Q957 52 956 52Q956 51 955 51L954 52L954 53L954 54L954 55L955 55L956 56L957 57L957 58Q957 59 956 59Q955 60 954 60ZM961 60L962 60L962 59L963 52L964 52L963 52L963 51L964 51L965 51L966 51Q965 51 965 52L963 59L963 60L964 60L963 60L961 60ZM972 52L971 58L971 59L971 60L970 60L969 60Q970 60 970 58L971 52Q971 51 970 51L971 51L972 51L972 52L973 52L976 58L977 53L977 52Q977 51 976 51L977 51L978 51L979 51Q978 51 977 53L976 60L972 52ZM986 60Q985 60 984 60Q983 59 983 58Q982 58 982 57L982 56Q983 54 983 53Q984 52 985 52Q987 51 988 51L989 51Q990 51 990 52L990 54Q990 53 989 52Q988 51 987 51Q986 51 985 52Q984 53 984 55L984 56Q984 57 984 58Q984 59 985 59L986 60L987 60Q988 60 988 59L988 58L988 57L987 57Q988 57 989 57L990 57L989 57L989 58L989 59L989 60Q987 60 986 60ZM993 60Q994 60 994 59Q995 59 995 58L999 51L1001 59L1001 60L1002 60L1001 60L1000 60L999 60L1000 60L1000 59L999 56L997 56L996 58L995 59L995 60L996 60L995 60L994 60L993 60ZM997 56L999 56L999 53L997 56ZM1006 60L1007 60L1007 59L1008 52Q1008 51 1007 51L1008 51L1009 51L1010 51L1011 51Q1012 51 1012 52Q1013 52 1013 53L1013 54Q1013 55 1012 55Q1012 56 1011 56L1010 56L1009 56Q1010 56 1011 56Q1012 55 1012 54L1012 53Q1012 52 1011 52Q1011 51 1010 51L1010 52L1009 52L1008 59L1008 60L1009 60L1008 60L1007 60L1006 60ZM1020 60L1019 60Q1018 59 1018 58Q1017 58 1017 57L1017 56Q1018 54 1018 53Q1019 52 1020 52Q1021 51 1022 51Q1023 51 1024 52Q1025 52 1025 53Q1025 54 1025 55L1025 56Q1025 57 1024 58Q1024 59 1023 60Q1021 60 1020 60ZM1021 60Q1022 60 1023 59Q1024 58 1024 56L1024 55Q1024 54 1024 53Q1024 52 1023 52L1022 51Q1020 51 1020 52Q1019 53 1018 55L1018 56Q1018 57 1019 58Q1019 59 1020 59Q1020 60 1021 60ZM1029 60L1030 60L1030 59L1031 59L1032 52L1031 51L1032 51L1033 51L1034 51Q1036 51 1036 53Q1036 54 1035 54Q1035 55 1034 55Q1035 57 1035 58L1036 59L1037 60L1036 60Q1035 60 1035 59Q1034 58 1033 56L1032 56L1032 59L1031 59Q1031 60 1032 60L1031 60L1029 60ZM1032 55L1033 55L1034 55Q1035 55 1035 54L1035 53L1035 52L1034 51L1033 51L1033 52L1032 55ZM1041 60L1042 60L1042 59L1043 59L1044 52L1043 51L1048 51L1048 53L1048 52L1047 51L1046 51Q1045 51 1045 52L1044 55L1046 55L1047 55L1047 54L1047 55L1047 57L1047 56L1046 56L1044 56L1044 59L1044 60L1046 60L1047 59L1048 58Q1048 59 1047 60L1041 60ZM1060 58L1060 57L1060 56Q1061 56 1061 57L1061 58L1060 58ZM1078 60L1079 60L1079 59L1080 59L1081 52L1077 60L1076 60L1075 52L1074 58L1074 59L1074 60L1073 60L1072 60Q1073 60 1073 58L1075 52L1074 51L1075 51L1076 52L1077 58L1081 52L1081 51L1082 51L1083 51Q1082 51 1082 52L1081 52L1080 59Q1080 60 1081 60L1080 60L1079 60L1078 60ZM1085 60Q1086 60 1086 59Q1087 59 1087 58L1091 51L1093 59L1093 60L1094 60L1093 60L1092 60L1091 60Q1092 60 1092 59L1091 56L1088 56L1087 58L1087 59L1087 60L1088 60L1087 60L1086 60L1085 60ZM1089 56L1091 56L1091 53L1089 56ZM1098 60Q1099 60 1099 59L1100 52Q1100 51 1099 51L1100 51L1101 51L1102 51L1101 52L1100 59L1100 60L1101 60L1102 60Q1103 60 1103 59Q1104 59 1104 58Q1104 59 1104 60L1098 60ZM1108 60L1109 59L1109 58L1113 51L1114 51L1115 59L1115 60L1116 60L1115 60L1114 60L1113 60L1114 60L1114 59L1114 56L1111 56L1110 58L1109 59Q1109 60 1110 60L1109 60L1108 60ZM1111 56L1114 56L1113 53L1111 56ZM1121 60L1122 60L1122 59L1123 56L1121 52Q1121 51 1120 51L1121 51L1122 51L1123 51L1122 51L1122 52L1124 55L1125 53L1126 52Q1126 51 1125 51L1126 51L1127 51L1128 51Q1127 51 1126 53L1124 56L1123 59L1123 60L1124 60L1123 60L1122 60L1121 60ZM1133 60L1132 60L1131 60L1131 59L1131 58L1131 57L1131 58Q1131 59 1132 59Q1132 60 1133 60L1134 60Q1135 59 1135 58Q1135 57 1134 57Q1134 56 1133 56L1133 55L1132 55L1132 54L1132 53Q1132 52 1133 52Q1134 51 1135 51L1136 51Q1137 52 1136 52L1136 53L1136 52Q1135 51 1134 51L1134 52L1133 52L1133 53L1133 54L1134 55Q1135 56 1136 56L1136 57L1136 58Q1136 59 1135 59Q1134 60 1133 60ZM1140 60L1141 60L1141 59L1142 59L1143 52L1142 51L1143 51L1144 51L1145 51Q1144 51 1144 52L1143 59L1143 60L1142 60L1140 60ZM1148 60L1148 59Q1149 59 1149 58L1153 51L1154 51L1155 59L1155 60L1156 60L1155 60L1154 60L1153 60L1154 60L1154 59L1154 56L1151 56L1150 58L1149 59Q1149 60 1150 60L1149 60L1148 60ZM1151 56L1154 56L1153 53L1151 56Z" fill="#8B7355"/>
<path d="M418 157L417 157L417 156L431 156L431 157L418 157ZM445 160L446 160L447 159L448 150L448 149L447 149L454 149L454 151Q454 150 453 150Q453 149 452 149L451 149L450 149Q450 150 449 150L449 154L451 154L452 154L453 153L453 154L452 154L452 155L452 156L452 155L451 155L449 155L448 158L448 159L448 160Q449 160 450 160L449 160L447 160L445 160ZM468 151L468 150Q468 149 467 149L468 149L469 149L470 149L471 149L470 149L469 149Q469 150 469 151L468 156Q468 158 466 159Q465 160 463 160Q462 160 461 159Q460 159 460 157L460 156L461 150L461 149L460 149L461 149L462 149L463 149L464 149L463 149L462 150L461 156L461 157Q461 158 462 159Q463 160 464 160Q465 160 466 159Q467 158 467 156L468 151ZM474 160L475 160L475 159L476 159L477 150L477 149L476 149L477 149L478 149L479 149L480 149L479 149L478 150L477 158L477 159L477 160L478 160L479 160Q480 160 481 159Q482 158 482 157L483 157Q482 159 482 160L474 160ZM488 160Q489 160 489 159L491 150Q491 149 490 149L489 149L490 149L491 149L492 149L493 149L492 149L492 150L490 158L490 159L491 160L493 160Q494 160 495 159Q495 158 496 157Q496 159 495 160L488 160ZM501 157L501 156L506 155L506 156L501 157ZM514 160L513 160L512 160L512 159L512 157Q512 158 513 159Q514 160 515 160Q516 160 516 159Q517 159 517 158L517 157Q517 156 516 156Q516 155 515 155L514 154Q514 153 513 153L513 152L513 151Q513 150 514 149Q515 149 517 149Q518 149 519 149L519 151L518 150Q517 149 516 149L515 149L515 150L514 151Q514 152 515 152L515 153Q516 153 516 154Q517 154 518 155Q518 156 518 157Q518 158 517 159Q516 160 514 160ZM526 160L527 160L528 159L529 150L529 149L528 149Q526 149 525 152Q525 151 525 150Q526 149 526 148Q526 149 527 149Q528 149 530 149Q531 149 532 149L533 149L534 149L534 148L535 148Q535 149 534 150Q534 151 534 152L534 151Q534 149 532 149L531 149L531 150L529 159L529 160L530 160L529 160L528 160L526 160ZM536 160Q537 160 537 159Q538 159 539 158L544 149L546 158L546 159L546 160L547 160L546 160L545 160L544 160L543 160L544 160L545 159L545 158L544 155L541 155L539 158L539 159L539 160L540 160L539 160L538 160L537 160L536 160ZM541 155L544 155L543 151L541 155ZM558 160Q555 160 554 159Q553 158 553 156Q553 155 553 154Q553 153 555 151Q556 150 557 149Q558 149 560 149L561 149L562 149L563 149L563 150L562 152Q562 150 561 150Q560 149 559 149Q557 149 556 150Q555 152 555 154L555 155Q555 157 555 158Q555 159 556 159Q557 160 558 160Q559 160 560 159Q561 159 562 157L561 159L561 160Q559 160 558 160ZM567 160L568 160L569 159L570 150L570 149L569 149L570 149L571 149L572 149L573 149L572 149L572 150L571 154L575 150Q576 150 576 149L575 149L576 149L577 149L578 149L577 149Q576 150 575 150L572 153L574 156Q575 158 576 159L576 160L577 160L576 160L575 160L574 159Q574 158 573 157L571 154L571 155L570 159L570 160L571 160L570 160L569 160L567 160ZM595 160Q594 160 593 160L592 160L592 159L592 157Q593 158 593 159Q594 160 595 160Q596 160 596 159Q597 159 597 158L597 157L597 156Q596 155 595 155Q595 154 594 154L594 153L593 152L593 151Q594 150 595 149Q596 149 597 149Q598 149 599 149L599 151Q599 150 598 150Q598 149 597 149L596 149L595 150L595 151L595 152Q595 153 596 153L597 154Q598 154 598 155Q599 156 599 157Q598 158 597 159Q596 160 595 160ZM609 160Q608 160 607 160Q606 159 606 158Q605 157 605 156Q605 155 605 154Q606 153 606 151Q607 150 609 149Q610 149 611 149Q613 149 614 149Q615 150 615 151Q616 152 616 153Q616 154 615 154Q615 156 614 157Q613 159 612 159Q611 160 609 160ZM610 160Q611 160 612 159Q614 157 614 155L614 154Q614 152 614 151L613 150Q612 149 611 149Q609 149 608 150Q607 151 607 153Q607 154 607 155Q607 156 607 157Q607 159 608 159Q609 160 610 160ZM621 160L620 160L621 160Q622 160 622 159L623 150L624 150Q624 149 623 149L622 149L629 149L630 149L629 151L629 150Q628 149 627 149L626 149L625 149L625 150L624 154L626 154L627 154Q628 154 628 153L628 154L628 155L627 156L627 155L626 155L624 155L623 158L623 159L624 160L625 160L624 160L622 160L621 160ZM636 160L637 160L637 159L638 159L639 150L639 149L638 149Q636 149 635 152Q635 151 635 150Q636 149 636 148Q636 149 637 149Q638 149 640 149Q641 149 642 149L643 149L644 149L644 148Q644 149 644 150Q644 151 644 152L643 152L644 151Q644 149 642 149L641 149L640 150L639 159L639 160L640 160L639 160L638 160L636 160ZM655 150Q654 150 654 149L655 149L656 149L656 150L657 153L658 150L658 149L657 149L658 149L659 149L660 149L659 149Q659 150 658 151L657 153L658 158L662 150Q662 149 661 149L662 149L663 149L664 149L663 149Q663 150 662 151L657 160L656 155L653 160L650 150L650 149L649 149L650 149L651 149L652 149L653 149Q652 149 652 150L654 158L656 154L655 150ZM665 160Q666 160 666 159Q667 159 667 158L673 149L675 158L675 159L675 160L676 160L675 160L674 160L673 160L672 160L673 160L673 159L673 158L673 155L669 155L668 158L667 159L668 160L669 160L668 160L667 160L666 160L665 160ZM670 155L673 155L672 151L670 155ZM681 160L682 160Q683 160 683 159L684 150L684 149L683 149L684 149L685 149L686 149L687 149Q690 149 690 151Q690 152 689 153L688 154Q688 156 689 157L690 159Q691 160 692 160L690 160Q689 160 688 159Q687 157 686 154Q686 155 685 155L685 154L684 159L684 160L685 160L684 160L683 160L681 160ZM685 154L686 154Q687 154 688 154Q688 153 688 152L689 151Q689 150 688 149L687 149L686 149L686 150L685 154ZM697 160L698 160L698 159L700 150L700 149L699 149L706 149L706 151L705 151L705 150Q705 149 704 149L703 149L702 149L701 149L701 150L701 154L703 154L704 154Q704 153 705 153L705 154L704 154L704 156L704 155L703 154L700 154L700 158L700 159L700 160L701 160L702 160Q703 160 704 159Q705 158 705 157Q705 158 705 160L704 160L697 160ZM720 160Q721 160 721 159L722 150L723 150Q723 149 722 149L721 149L728 149L729 149L728 151L728 150Q727 149 726 149L725 149L724 149L724 150L723 154L725 154Q726 154 727 154L727 153L727 154L727 156L727 155L726 155Q726 154 725 154L723 154L722 158L722 159L722 160L723 160L725 160Q726 160 726 159Q727 158 728 157Q727 158 727 160L720 160ZM737 150L735 158L735 159Q735 160 736 160L735 160L733 160Q735 160 735 158L736 150L736 149L735 149L736 149L737 149L738 149L738 150L742 158L743 151L744 150Q744 149 743 149L742 149L743 149L744 149L745 149L746 149Q744 149 744 151L742 160L737 150ZM755 160Q754 160 753 160Q752 159 751 158Q750 157 750 156Q750 155 751 154Q751 153 752 151Q753 150 754 149Q756 149 758 149L759 149L760 149L760 150L760 152Q760 150 759 150Q758 149 757 149Q755 149 754 150Q752 152 752 154L752 155Q752 157 752 158Q753 159 754 159Q755 160 756 160L757 160L758 159L758 158L758 157L758 156L757 156L756 156L758 156Q759 156 760 156L759 156Q759 157 759 158L759 159L759 160Q757 160 755 160ZM766 160Q767 160 767 159L768 150L769 150Q769 149 768 149L767 149L768 149L769 149L770 149L771 149L770 149L770 150L768 159L768 160L769 160L767 160L766 160ZM779 150L778 158L778 159Q778 160 779 160L778 160L777 160L776 160L775 160L776 160Q777 160 777 158L779 150L778 149L777 149L779 149L780 149L780 150L785 158L786 151L786 150Q786 149 785 149L786 149L787 149L788 149Q787 149 786 151L785 160L784 160L779 150ZM792 160L793 160L793 159L795 150L795 149L794 149L801 149L801 151L800 151L800 150L799 149L798 149L797 149L796 149L796 150L795 154L798 154L799 154L799 153L800 153L800 154L799 154L799 156L799 155L798 154L795 154L795 158L795 159L795 160L796 160L797 160Q798 160 799 159Q799 158 800 157Q800 158 800 160L799 160L792 160ZM806 160L807 160L807 159L809 150L809 149L808 149L815 149L814 151L814 150L813 149L811 149L810 149L810 150L809 154L812 154L813 154L813 153L814 153Q813 153 813 154L813 156L813 155L812 154L809 154L809 158L808 159L809 160L810 160L811 160Q812 160 813 159Q813 158 814 157Q814 158 813 160L806 160ZM820 160Q821 160 821 159L823 150L823 149L822 149Q823 149 824 149L825 149Q828 149 828 151Q828 152 827 153Q827 154 826 154Q827 156 827 157Q828 159 829 159Q829 160 830 160L828 160Q827 160 827 159Q826 157 825 154L824 155L823 154L822 159Q822 160 823 160L824 160L823 160L822 160L820 160ZM823 154L824 154Q825 154 826 154Q827 153 827 152L827 151Q827 150 826 149L825 149L824 149L824 150L823 154ZM844 157L844 156L858 156L858 157L844 157Z" fill="#8B7355"/>
<path d="M303 213L304 213Q304 214 303 214Q299 214 298 215Q296 215 295 217Q295 219 295 223L295 292Q295 305 289 313Q283 320 271 320Q267 320 264 319Q262 317 262 314Q262 312 263 311Q264 309 267 309Q269 309 270 311Q272 312 273 314Q274 316 275 317Q276 318 277 318Q281 318 283 313Q285 308 285 297L285 223Q285 219 284 217Q283 215 281 215Q278 214 273 214L273 213L280 213Q286 213 290 213Q293 213 298 213L303 213ZM312 290L312 289Q317 289 318 287Q320 285 320 280L320 257Q320 253 319 251Q318 249 316 249Q314 249 311 250L310 250L310 249L327 241L328 241L329 242Q329 244 328 248Q328 251 328 257L328 280Q328 285 330 287Q331 289 336 289L336 290Q333 290 331 290L324 290L317 290Q315 290 312 290ZM323 227Q321 227 319 226Q317 224 317 221Q317 218 319 217Q321 215 323 215Q326 215 328 217Q329 218 329 221Q329 224 328 226Q326 227 323 227ZM377 290Q376 290 376 289L377 289Q380 289 381 288Q383 287 383 285Q384 284 384 280L384 260Q384 253 381 250Q379 247 373 247Q370 247 366 248Q362 250 359 253L359 280Q359 284 360 285Q360 287 362 288Q363 289 367 289L367 290Q364 290 362 290L355 290L348 290Q346 290 343 290L343 289Q346 289 348 288Q349 287 350 285Q351 284 351 280L351 256Q351 252 350 250Q349 248 346 248Q344 248 340 250Q339 250 339 249L339 248L355 241Q356 241 358 244Q359 246 359 251Q368 241 378 241Q385 241 389 245Q392 249 392 256L392 280Q392 284 393 285Q394 287 395 288Q397 289 400 289L400 290Q397 290 395 290L388 290L381 290Q380 290 377 290ZM423 325Q414 325 409 321Q404 317 404 311Q404 302 417 293Q412 293 410 291Q407 289 407 285Q407 281 410 278Q412 275 416 272Q412 269 409 266Q407 262 407 257Q407 250 413 246Q419 241 427 241Q435 241 440 245Q447 241 454 241L454 242Q454 243 454 244Q454 245 454 247L453 249Q448 247 445 247Q443 247 442 247Q446 251 446 257Q446 262 443 265Q441 269 436 271Q431 274 426 274Q422 274 418 272Q416 274 415 276Q414 277 414 279Q414 284 418 285Q422 286 432 286Q438 287 443 287Q447 288 450 291Q454 293 454 299Q454 306 449 312Q445 318 438 321Q431 325 423 325ZM429 272Q432 272 435 269Q437 266 437 260Q437 252 433 248Q429 243 424 243Q420 243 418 246Q416 249 416 254Q416 259 418 263Q420 267 422 269Q425 272 429 272ZM412 306Q412 313 417 317Q421 321 429 321Q436 321 441 317Q446 312 446 305Q446 300 444 298Q442 295 438 295Q434 294 427 294L420 294Q416 296 414 299Q412 302 412 306ZM550 223Q550 219 550 217Q549 215 547 215Q545 214 540 214Q539 214 539 213L540 213L546 213Q551 213 555 213Q559 213 564 213L571 213L571 214Q566 214 564 215Q562 215 561 217Q560 219 560 223L560 280Q560 284 561 285Q562 287 564 288Q566 289 571 289L571 290L555 290L546 290Q544 290 540 290Q539 290 539 289L540 289Q545 289 547 288Q549 287 550 286Q550 284 550 280L550 251L505 251L505 280Q505 284 506 285Q507 287 509 288Q511 289 516 289L516 290Q512 290 510 290L500 290L485 290L485 289Q489 289 492 288Q494 287 495 285Q495 284 495 280L495 223Q495 219 495 217Q494 215 492 215Q490 214 485 214L485 213L491 213Q497 213 500 213Q504 213 510 213L516 213L516 214Q511 214 509 215Q507 215 506 217Q505 219 505 223L505 248L550 248L550 223ZM596 291Q590 291 586 287Q582 283 582 276L582 257Q582 252 582 250Q581 248 579 248Q577 248 575 249L574 249L574 248L589 241L590 241L591 242L591 271Q591 278 593 282Q596 285 601 285Q605 285 609 283Q612 282 615 279L615 257Q615 252 614 250Q613 248 611 248Q610 248 608 249L607 249L607 248L622 241L623 241L624 242L624 276Q624 281 625 282Q626 284 628 284Q629 284 634 283L635 283L635 284L619 291Q617 291 616 288Q615 286 615 281Q606 291 596 291ZM639 290L639 289Q643 289 645 287Q646 285 646 280L646 257Q646 253 645 251Q645 249 642 249Q640 249 637 250L636 250L636 249L653 241L654 241L655 241L655 242Q655 244 655 248Q655 251 655 257L655 280Q655 285 656 287Q658 289 662 289L663 289Q663 290 662 290Q659 290 657 290L651 290L644 290Q642 290 639 290ZM650 227Q647 227 645 226Q644 224 644 221Q644 218 645 217Q647 215 650 215Q653 215 654 217Q656 218 656 221Q656 224 654 226Q653 227 650 227ZM716 279Q716 283 717 285Q718 287 721 288Q724 289 730 289L730 290Q725 290 722 290L711 290L696 290L696 289Q701 289 703 288Q705 287 705 285Q706 284 706 280L706 223Q706 219 705 217Q705 215 703 215Q701 214 696 214L696 213L702 213Q708 213 711 213Q714 213 718 213Q721 212 723 212Q726 212 728 212Q740 212 747 217Q754 222 754 233Q754 241 750 246Q746 252 740 255Q733 258 727 258Q723 258 721 257Q720 257 720 256L721 256L721 255Q723 256 725 256Q733 256 738 250Q743 245 743 235Q743 225 738 220Q733 214 725 214Q721 214 719 215Q718 215 717 217Q716 219 716 223L716 279ZM838 289L839 289Q839 290 838 290Q836 290 831 290Q826 290 823 290Q821 290 816 290Q812 290 810 290L810 289Q814 289 816 288Q818 287 818 285Q818 283 816 279L806 258L776 258L769 274Q768 278 768 280Q768 289 780 289L780 290Q777 290 773 290Q768 290 765 290Q762 290 757 290Q753 290 751 290Q750 290 750 289L751 289Q754 289 757 287Q759 286 761 282Q764 279 766 273L793 212Q793 211 794 211L795 212L824 273Q829 282 832 285Q835 289 838 289ZM777 255L805 255L790 225L777 255ZM852 276L852 219Q849 216 846 215Q844 214 841 214L841 213L850 213L856 213Q858 213 859 213L860 213Q861 213 862 215Q864 217 865 219L911 275L911 227Q911 220 909 217Q907 214 902 214Q901 214 901 213L902 213L907 213Q910 213 913 213Q915 213 919 213L925 213L925 214Q914 214 914 227L914 292L913 292L855 223L855 276Q855 282 857 285Q860 289 865 289L865 290Q861 290 860 290L853 290L841 290L841 289Q847 289 849 285Q852 282 852 276ZM976 291Q962 291 952 286Q942 281 936 271Q931 262 931 251Q931 239 937 230Q943 221 954 216Q965 211 978 211Q985 211 990 212Q996 213 1000 215L1001 216Q1001 217 1001 218L1003 234L1002 234Q999 225 992 219Q986 213 975 213Q966 213 958 218Q951 222 947 230Q942 238 942 249Q942 260 947 269Q951 278 959 284Q968 290 979 290Q988 290 991 286Q994 283 994 275Q994 268 994 266Q993 263 990 262Q987 261 981 261Q980 261 980 260Q980 259 981 259Q991 260 997 260Q1003 260 1009 259Q1010 259 1010 260Q1010 261 1009 261Q1006 261 1005 262Q1004 263 1004 266Q1004 269 1004 276Q1004 279 1004 281Q1004 284 1004 285Q1004 286 1004 287L1004 288L1003 288Q988 291 976 291Z" fill="#1E4B8C"/>
<path d="M586 333L583 331C580 337 575 340 570 342C576 341 581 338 585 333C586 333 586 333 586 333ZM585 324L583 323C580 327 577 330 573 332L574 333C578 331 582 328 584 325C585 325 585 325 585 324ZM584 317L582 315C580 319 577 322 574 324L574 325C578 323 581 320 583 317C584 317 584 317 584 317ZM562 333C563 334 563 336 563 338C565 339 567 336 562 333ZM572 334L569 333C569 335 568 337 567 338C564 339 560 340 559 340L560 342C560 342 560 342 561 342C567 340 571 339 575 338L575 337L568 338C569 337 570 335 571 334C571 334 572 334 572 334ZM571 331L562 331L562 327L571 327ZM560 325L560 333L561 333C562 333 562 333 562 332L571 332L571 333C572 333 573 332 573 332L573 327C573 327 574 327 574 327L572 325L570 326L563 326ZM573 317L571 318L567 318L567 316C568 316 569 316 569 315L566 315L566 318L559 318L559 319L566 319L566 323L560 323L573 323C574 323 574 323 574 323C573 322 572 321 572 321L570 323L567 323L567 319L574 319C575 319 575 319 575 319C574 318 573 317 573 317ZM631 315C632 316 633 317 634 318C636 319 637 315 631 315ZM627 320C628 321 629 322 629 324C631 325 633 321 627 320ZM643 317L642 318L623 318L623 319L645 319C645 319 646 319 646 319C645 318 643 317 643 317ZM632 333L627 333L627 328L640 328L640 333ZM625 327L625 335C626 335 627 335 627 335L627 334L630 334C629 338 626 340 620 342C627 341 631 339 632 334L636 334L636 340C636 341 636 342 638 342L642 342C647 342 648 341 648 340C648 340 648 340 647 340L647 337L646 337C646 338 646 339 646 340C645 340 645 340 645 340C645 340 643 340 642 340L639 340C638 340 637 340 637 339L637 334L640 334L640 335L641 335C642 335 642 334 642 334L642 328C643 328 643 328 644 328L641 326L640 327L627 327ZM645 322L644 324L637 324C639 323 640 322 640 321C641 321 641 321 642 321L638 319C638 321 637 323 637 324L620 324L621 325L647 325C647 325 648 325 648 324C647 323 645 322 645 322ZM694 318L691 317C691 319 690 322 689 324L690 324C691 322 692 320 693 318C694 318 694 318 694 318ZM683 317L682 317C683 319 684 322 684 324C685 326 687 322 683 317ZM707 321L705 323L700 323C701 322 701 321 701 320C702 320 702 320 702 320L700 319C699 320 699 321 698 323L694 323L694 324L698 324C697 326 696 328 695 329C695 329 694 329 694 330L696 331L697 330L701 330L701 334L693 334L693 335L701 335L701 342C702 342 703 342 703 342L703 335L709 335C709 335 710 335 710 335C709 334 707 333 707 333L706 334L703 334L703 330L708 330C708 330 709 330 709 330C708 329 706 328 706 328L705 330L703 330L703 326C703 326 704 326 704 326L701 325L701 330L697 330C698 328 699 326 700 324L708 324C709 324 709 324 709 323C708 322 707 321 707 321ZM696 315L695 315C695 317 695 319 694 319C692 321 696 322 696 318L707 318C706 318 706 320 706 320C707 320 708 319 709 318C709 318 710 318 710 318L708 315L707 317L696 317ZM690 315L687 315L687 326L682 326L682 327L685 327C685 332 685 338 682 342C686 338 686 332 687 327L689 327L689 335C689 336 689 336 688 337L689 339C689 339 690 338 690 338C692 336 693 334 694 333L691 335L691 327L693 327C694 327 694 327 694 326C693 325 692 324 692 324L691 326L689 326L689 316C689 316 690 316 690 315Z" fill="#8B7355"/>
<line x1="540" x2="630" y1="378" y2="378" stroke="#8B7355" stroke-width="1"/>
<line x1="650" x2="740" y1="378" y2="378" stroke="#8B7355" stroke-width="1"/>
<circle cx="640" cy="378" r="3.5" fill="#D97706"/>
<path d="M509 405L509 404Q510 404 511 404L508 411L509 405ZM512 405Q512 404 513 404L514 404L512 411L511 411L512 405ZM520 405L519 405L519 406L518 410L519 410Q520 410 521 409Q522 409 522 407Q523 407 523 406L522 405Q521 405 520 405ZM518 418Q520 418 521 417Q522 416 522 414L522 413L522 412Q521 411 519 411L518 411L517 416L517 417L518 418ZM513 418Q514 418 515 417L515 416L517 406L517 405L516 405L516 404L517 404L518 404L519 404Q520 404 521 404Q522 404 523 405Q524 405 524 407Q524 408 523 409Q522 410 521 410Q522 410 523 411Q524 412 524 413L524 414Q524 415 523 416Q522 417 521 418Q520 418 519 418Q518 418 517 418L516 418L514 418L513 418ZM528 418Q526 418 526 417Q526 416 527 415L527 411L527 410L526 411L525 411Q526 410 527 410Q527 409 528 409Q529 409 529 410L529 411L528 415L528 416Q528 417 529 417L530 416Q531 416 532 414Q532 412 533 410L533 409L534 409L534 410L534 411L533 416L533 417L534 417L535 416Q534 417 533 418L532 418Q531 418 531 417L531 416L532 414Q531 416 530 417Q529 418 528 418ZM538 418Q537 418 537 417L537 416L538 411Q538 410 537 410L536 411L537 410L538 409Q539 409 539 410L539 411L538 416L538 417L539 417L540 416L540 417Q539 417 539 418L538 418ZM539 407L538 407L538 406L538 405L539 405L540 405L540 406L540 407L539 407ZM543 418L542 418L542 417L542 416L544 405L544 404L544 403Q543 403 543 404L546 402L543 416L543 417L544 417L545 416Q544 417 544 418L543 418ZM548 418L547 418Q546 417 546 416L547 415Q547 414 548 412Q549 411 550 410Q551 409 552 409L553 409L554 405L554 404L554 403L553 404L556 402L554 416L554 417L555 416Q555 417 554 418L553 418L552 418L552 417L552 416L553 414Q552 416 551 417Q549 418 548 418ZM549 417Q550 417 551 416Q552 415 552 414L553 412Q553 411 553 410L552 410Q550 410 549 411Q548 412 548 414L548 415Q548 416 548 417L549 417ZM558 418Q557 418 557 417L557 416L558 411L558 410L557 410L557 411L556 411Q557 410 558 410Q558 409 559 409L560 410L560 411L559 416L559 417Q560 417 561 416L561 417Q560 417 559 418L558 418ZM560 407L559 407L559 406L559 405L560 405Q561 405 561 406L560 407ZM569 418L568 418L568 417L568 416L569 413Q569 412 569 411Q569 410 568 410Q567 410 566 411Q566 412 565 414Q564 415 564 418L563 418L562 418L563 418Q563 417 563 416L564 411Q564 410 563 410L562 411Q562 410 563 410L564 409Q565 409 565 410L565 411L565 414Q565 412 566 410Q567 409 569 409L570 410L570 411L570 412L569 416L569 417L570 417L571 416Q570 417 570 418L569 418ZM574 424Q572 424 571 424Q570 423 570 422Q571 421 571 420Q572 419 574 419Q573 418 573 417Q573 416 574 416L573 415Q572 414 572 413L573 413Q573 411 574 410Q575 409 576 409Q577 409 578 410Q579 409 580 409L580 410L580 411Q579 410 578 410Q579 411 579 412L578 413L578 414Q577 415 576 415Q576 416 575 416L574 416L574 417Q575 418 576 418Q577 419 578 419Q578 420 578 421Q578 422 578 423Q577 423 576 424Q575 424 574 424ZM575 415L576 415Q577 414 577 413L577 412L577 411L576 410L575 410Q574 411 574 412L574 413Q574 414 574 415L575 415ZM572 421Q572 422 573 423Q574 424 575 424Q576 424 577 423L577 422Q577 421 577 420Q576 420 575 419L574 419Q573 419 572 420L572 421ZM588 418Q586 418 586 417L586 416L587 411L587 410L586 410Q587 410 588 409L589 408L589 410L591 410L592 410L591 410L591 411Q591 410 590 410L589 410L588 416L588 417L589 417L590 417L591 416L591 417Q590 417 589 418L588 418ZM593 418L592 418Q593 417 593 416L595 405L595 404Q595 403 594 403L593 404L596 402L597 402L594 414Q595 412 596 410Q597 409 598 409Q599 409 600 410L600 411L600 412L599 416L599 417Q600 417 601 416Q600 417 600 418Q599 418 598 418L598 417L598 416L598 413Q598 412 598 411L598 410Q597 410 596 411Q595 412 595 414Q594 415 594 418L593 418ZM604 418Q603 418 603 417L603 416L604 411L604 410L603 410Q603 411 602 411L603 410L604 409Q605 409 605 410L605 411L604 416L604 417L605 417L606 416L606 417Q605 417 605 418L604 418ZM605 407L604 407L604 406L604 405L605 405L606 405L606 406L606 407L605 407ZM614 418Q613 418 613 417L613 416L614 413Q614 412 614 411Q614 410 613 410L612 411Q611 412 611 414Q610 415 609 418L608 418Q608 417 608 416L609 411L609 410L608 410Q608 411 607 411Q608 410 609 410Q609 409 610 409L610 410L611 410L611 411L610 414Q611 412 612 410Q613 409 614 409Q615 409 615 410Q616 410 616 411L616 412L615 416L615 417Q616 417 617 416Q616 417 615 418L614 418ZM619 424Q618 424 617 424Q616 423 616 422Q616 421 617 420Q618 419 619 419Q618 418 618 417L619 417L619 416Q619 415 618 415Q618 414 618 413Q618 411 619 410Q620 409 622 409Q623 409 623 410Q624 409 625 409Q626 409 626 410L625 410L625 411Q625 410 624 410Q624 411 624 412L624 413Q624 414 623 414Q623 415 622 415Q621 416 620 416L620 417Q620 418 621 418L623 419Q624 420 624 421Q624 422 623 423L622 424Q621 424 619 424ZM621 415L622 415Q622 414 623 413L623 412Q623 411 622 411Q622 410 621 410L620 410Q620 411 620 412L619 413Q619 414 620 415L621 415ZM617 421Q617 422 618 423Q619 424 620 424Q622 424 622 423Q623 423 623 422Q623 421 622 420Q621 420 620 419L619 419Q618 419 618 420L617 421ZM628 418Q627 418 626 418L626 417L626 416L627 416L627 417L628 417L628 418Q629 418 630 416L629 415L628 414L627 413L627 412L627 411L628 410Q629 409 630 409Q631 409 631 410L632 410Q632 411 631 411L630 411L630 410L629 410L628 410L628 411L628 412Q629 412 629 413L630 414L631 415Q631 416 630 417L629 418L628 418ZM636 424L635 424L635 423L635 422L636 422L636 423Q637 423 637 424L637 423Q638 423 638 422Q638 421 638 419L639 411L639 410L638 410L639 410L640 409Q640 406 641 405Q641 403 642 403Q643 402 644 402Q645 402 646 402L646 403L646 404L645 404Q644 404 644 403L644 402Q643 402 642 404Q642 405 641 408L641 410L642 410L643 410Q642 410 641 410L640 418Q639 421 639 422Q639 423 638 424Q637 424 636 424ZM645 418L644 418L645 416L645 412L645 411L645 410Q644 410 644 411L643 411Q644 410 645 410Q645 409 646 409L647 410L647 411L647 412L646 414Q647 412 648 411L649 409Q650 409 650 410L651 410Q651 411 650 411L649 411Q648 411 648 412Q647 413 646 415Q646 417 646 418L645 418ZM654 418Q652 418 652 417Q651 416 651 415L651 414Q651 412 652 411Q653 410 654 410Q655 409 656 409Q657 409 658 410Q659 411 659 413L658 414Q658 415 657 416Q657 417 656 418Q655 418 654 418ZM654 418Q655 418 656 417Q657 416 657 415Q657 414 657 413Q657 412 656 411Q656 410 655 410Q654 410 653 411L652 413L652 414Q652 416 653 417Q653 418 654 418ZM671 418L670 418L670 417L670 416L671 413Q671 412 671 411Q671 410 670 410L669 411Q668 412 668 413Q667 415 667 417L667 418L666 418L665 418L665 416L666 413Q666 412 666 411Q666 410 665 410L664 411Q663 412 663 414Q662 415 662 418L661 418L660 418L661 416L661 411L662 411Q662 410 661 410L660 411Q660 410 661 410L662 409Q663 409 663 410L663 411L662 414Q663 412 664 410Q665 409 666 409Q668 409 668 411L668 412L667 414Q668 412 669 410Q670 409 671 409Q672 409 672 410Q673 410 673 411Q673 412 672 412L672 416L672 417L673 416L674 416Q673 417 672 418L671 418ZM679 418L685 411Q684 411 683 411Q682 411 681 411Q680 411 680 412Q680 411 681 410L681 409L682 409L684 410L685 410L686 410L687 409L681 416Q682 416 684 417L685 417L686 417L686 416L686 417Q686 418 685 418L684 418L683 418Q681 418 680 418L679 418ZM690 418Q689 418 688 417Q687 416 687 415L687 414Q688 413 688 412Q689 411 690 410Q691 409 692 409Q693 409 694 409L694 410Q694 411 693 412L691 413Q690 413 689 413Q689 414 689 415Q689 416 689 417Q690 417 691 417Q692 417 693 417Q692 418 690 418ZM689 413Q692 412 692 411L692 410L691 410L690 411Q689 412 689 413ZM696 418L695 418L696 418L696 416L697 412L697 411Q697 410 696 410L695 411Q695 410 696 410L697 409Q698 409 698 410L698 411L698 412L698 414Q698 412 699 411Q700 409 701 409L702 410L702 411L701 411L700 411L699 412Q698 413 698 415Q697 417 697 418L696 418ZM705 418Q704 418 703 417Q702 416 702 415L702 414Q702 412 703 411Q704 410 705 410Q706 409 707 409Q708 409 709 410Q710 411 710 413L710 414Q709 415 709 416Q708 417 707 418Q706 418 705 418ZM706 418Q707 418 707 417Q708 416 708 415Q708 414 708 413Q708 412 708 411Q707 410 706 410Q705 410 705 411Q704 411 704 413L704 414Q704 416 704 417Q705 418 706 418ZM718 418Q717 418 717 417L717 416L718 411Q718 410 717 410Q718 410 718 409Q719 409 719 408L720 408L719 410L721 410L722 410Q722 411 721 411Q721 410 720 410L719 410L718 416L718 417L719 417L720 417Q721 417 721 416L721 417Q720 417 720 418Q719 418 718 418ZM725 418Q724 418 723 417Q723 416 723 415L723 414Q723 412 724 411Q724 410 725 410Q726 409 727 409Q729 409 730 410Q730 411 730 413L730 414Q730 415 729 416Q728 417 727 418Q726 418 725 418ZM726 418Q727 418 728 417Q728 416 729 415Q729 414 729 413Q729 412 728 411Q728 410 727 410Q726 410 725 411L724 413L724 414Q724 416 725 417Q725 418 726 418ZM739 418Q738 418 737 417Q737 416 737 415L737 414Q737 412 738 411Q738 410 739 410Q740 409 741 409Q743 409 744 410Q744 411 744 413L744 414Q744 415 743 416Q742 417 741 418Q740 418 739 418ZM740 418Q741 418 742 417Q742 416 743 415Q743 414 743 413Q743 412 742 411Q742 410 741 410Q740 410 739 411Q738 411 738 413L738 414Q738 416 739 417Q739 418 740 418ZM752 418Q751 418 751 417L752 416L752 413Q752 412 752 411Q752 410 751 410L750 411Q749 412 749 414Q748 415 747 418L746 418Q746 417 746 416L747 411L747 410L746 410Q746 411 745 411Q746 410 747 410Q747 409 748 409L749 410L749 411L748 414Q749 412 750 410Q751 409 752 409Q753 409 753 410Q754 410 754 411L754 412L753 416L753 417Q754 417 755 416Q754 417 753 418L752 418ZM759 418Q757 418 757 417Q756 416 756 415L756 414Q756 413 757 412Q758 411 759 410Q760 409 761 409L762 409L763 410Q763 411 762 412Q761 412 760 413Q759 413 757 413Q757 414 757 415Q757 416 758 417Q759 417 760 417Q761 417 762 417Q760 418 759 418ZM758 413Q761 412 761 411L761 410L760 410Q759 410 758 411Q758 412 758 413ZM764 418Q763 418 763 417L764 416L765 416L765 417L765 418L764 418ZM769 405Q769 404 770 404L771 404L769 411L769 405ZM773 405L773 404Q774 404 775 404L772 411L773 405Z" fill="#2C2416"/>
<g transform="translate(0, 440)">
<path stroke="#8B7355" stroke-width="3" fill="none" stroke-linecap="round" opacity="0.3">
<animate attributeName="d" dur="10s" repeatCount="indefinite" values="M0,70 Q160,30 320,70 T640,70 T960,70 T1280,70;M0,70 Q160,110 320,70 T640,70 T960,70 T1280,70;M0,70 Q160,30 320,70 T640,70 T960,70 T1280,70"/>
</path>
<path stroke="#1E4B8C" stroke-width="2" fill="none" stroke-linecap="round" opacity="0.5">
<animate attributeName="d" dur="7.5s" repeatCount="indefinite" values="M0,90 Q200,60 400,90 T800,90 T1280,90;M0,90 Q200,120 400,90 T800,90 T1280,90;M0,90 Q200,60 400,90 T800,90 T1280,90"/>
</path>
<path stroke="#E8C8A0" stroke-width="1.5" fill="none" stroke-linecap="round" opacity="0.7">
<animate attributeName="d" dur="5s" repeatCount="indefinite" values="M0,110 Q180,90 360,110 T720,110 T1080,110 T1280,110;M0,110 Q180,130 360,110 T720,110 T1080,110 T1280,110;M0,110 Q180,90 360,110 T720,110 T1080,110 T1280,110"/>
</path>
</g>
<line x1="120" y1="555" x2="1160" y2="555" stroke="#8B7355" stroke-width="0.5" opacity="0.5"/>
</svg>